<?xml version="1.0" standalone="no"?>
<!DOCTYPE svg PUBLIC "-//W3C//DTD SVG 20010904//EN"
 "http://www.w3.org/TR/2001/REC-SVG-20010904/DTD/svg10.dtd">
<svg version="1.0" xmlns="http://www.w3.org/2000/svg"
 width="181.000000pt" height="258.000000pt" viewBox="0 0 181.000000 258.000000"
 preserveAspectRatio="xMidYMid meet">
<metadata>
Created by potrace 1.15, written by Peter Selinger 2001-2017
</metadata>
<g transform="translate(0.000000,258.000000) scale(0.100000,-0.100000)"
fill="#000000" stroke="none">
<path d="M690 2563 c-19 -10 -45 -34 -58 -53 -21 -30 -23 -43 -18 -94 8 -82
-8 -126 -75 -203 -72 -80 -102 -141 -107 -213 -4 -55 10 -104 102 -358 37
-105 35 -159 -10 -252 -49 -100 -50 -161 -5 -244 l31 -59 -3 -141 c-3 -122 -7
-147 -26 -185 -22 -42 -47 -227 -77 -569 -4 -40 -11 -75 -15 -78 -14 -8 -10
-82 4 -91 14 -9 373 -15 400 -7 9 3 17 11 17 18 0 8 7 19 15 26 33 28 3 56
-69 65 -31 4 -61 14 -69 24 -50 57 -12 415 68 636 32 87 57 197 70 300 10 84
16 105 30 105 7 0 18 -15 24 -32 28 -87 101 -396 101 -428 0 -21 11 -56 25
-81 84 -149 134 -297 141 -419 7 -111 -10 -169 -55 -190 -41 -20 -24 -40 34
-40 34 1 43 6 60 32 11 17 30 37 41 45 19 12 22 12 28 -2 4 -11 -3 -20 -24
-29 -37 -15 -29 -26 19 -26 30 0 39 6 54 31 9 17 17 40 17 52 0 12 7 31 15 41
23 30 18 51 -18 79 -28 21 -37 40 -60 119 -15 51 -34 133 -42 182 -9 50 -32
129 -50 177 -26 66 -37 113 -45 195 -12 134 -1 211 45 312 19 41 35 86 35 99
0 37 -26 91 -70 143 -72 86 -76 125 -24 266 45 122 58 271 30 338 -11 27 -13
43 -6 51 6 7 10 36 9 64 -1 29 3 57 9 63 7 7 12 39 12 71 0 105 -45 147 -167
155 -69 4 -74 6 -93 36 -43 70 -177 107 -250 69z m200 -329 c8 -21 15 -25 34
-20 55 14 106 -34 92 -88 -3 -14 -31 -52 -62 -86 -31 -33 -62 -77 -69 -97
l-13 -37 -15 35 c-8 19 -44 66 -81 103 -55 56 -66 74 -66 101 0 52 26 71 110
77 19 2 36 9 36 16 2 20 4 22 14 22 6 0 15 -12 20 -26z"/>
</g>
</svg>
