<?xml version="1.0" encoding="UTF-8" standalone="no"?>
<svg
   xmlns:dc="http://purl.org/dc/elements/1.1/"
   xmlns:cc="http://creativecommons.org/ns#"
   xmlns:rdf="http://www.w3.org/1999/02/22-rdf-syntax-ns#"
   xmlns:svg="http://www.w3.org/2000/svg"
   xmlns="http://www.w3.org/2000/svg"
   xmlns:sodipodi="http://sodipodi.sourceforge.net/DTD/sodipodi-0.dtd"
   xmlns:inkscape="http://www.inkscape.org/namespaces/inkscape"
   version="1.0"
   width="181.000000pt"
   height="258.000000pt"
   viewBox="0 0 181.000000 258.000000"
   preserveAspectRatio="xMidYMid meet"
   id="svg8"
   sodipodi:docname="couple.svg"
   inkscape:version="0.92.1 r15371">
  <defs
     id="defs12" />
  <sodipodi:namedview
     pagecolor="#ffffff"
     bordercolor="#666666"
     borderopacity="1"
     objecttolerance="10"
     gridtolerance="10"
     guidetolerance="10"
     inkscape:pageopacity="0"
     inkscape:pageshadow="2"
     inkscape:window-width="969"
     inkscape:window-height="754"
     id="namedview10"
     showgrid="false"
     inkscape:zoom="1.372093"
     inkscape:cx="108.87268"
     inkscape:cy="73.758193"
     inkscape:window-x="437"
     inkscape:window-y="18"
     inkscape:window-maximized="0"
     inkscape:current-layer="svg8" />
  <metadata
     id="metadata2">
Created by potrace 1.15, written by Peter Selinger 2001-2017
<rdf:RDF>
  <cc:Work
     rdf:about="">
    <dc:format>image/svg+xml</dc:format>
    <dc:type
       rdf:resource="http://purl.org/dc/dcmitype/StillImage" />
  </cc:Work>
</rdf:RDF>
</metadata>
  <g
     transform="matrix(0.1,0,0,-0.1,0,261)"
     id="g6"
     style="fill:#000000;stroke:none">
    <path
       d="m 690,2563 c -19,-10 -45,-34 -58,-53 -21,-30 -23,-43 -18,-94 8,-82 -8,-126 -75,-203 -72,-80 -102,-141 -107,-213 -4,-55 10,-104 102,-358 37,-105 35,-159 -10,-252 -49,-100 -50,-161 -5,-244 l 31,-59 -3,-141 C 544,824 540,799 521,761 499,719 474,534 444,192 c -4,-40 -11,-75 -15,-78 -14,-8 -10,-82 4,-91 14,-9 373,-15 400,-7 9,3 17,11 17,18 0,8 7,19 15,26 33,28 3,56 -69,65 -31,4 -61,14 -69,24 -50,57 -12,415 68,636 32,87 57,197 70,300 10,84 16,105 30,105 7,0 18,-15 24,-32 28,-87 101,-396 101,-428 0,-21 11,-56 25,-81 84,-149 134,-297 141,-419 7,-111 -10,-169 -55,-190 -41,-20 -24,-40 34,-40 34,1 43,6 60,32 11,17 30,37 41,45 19,12 22,12 28,-2 4,-11 -3,-20 -24,-29 -37,-15 -29,-26 19,-26 30,0 39,6 54,31 9,17 17,40 17,52 0,12 7,31 15,41 23,30 18,51 -18,79 -28,21 -37,40 -60,119 -15,51 -34,133 -42,182 -9,50 -32,129 -50,177 -26,66 -37,113 -45,195 -12,134 -1,211 45,312 19,41 35,86 35,99 0,37 -26,91 -70,143 -72,86 -76,125 -24,266 45,122 58,271 30,338 -11,27 -13,43 -6,51 6,7 10,36 9,64 -1,29 3,57 9,63 7,7 12,39 12,71 0,105 -45,147 -167,155 -69,4 -74,6 -93,36 -43,70 -177,107 -250,69 z m 200,-329 c 8,-21 15,-25 34,-20 55,14 106,-34 92,-88 -3,-14 -31,-52 -62,-86 -31,-33 -62,-77 -69,-97 l -13,-37 -15,35 c -8,19 -44,66 -81,103 -55,56 -66,74 -66,101 0,52 26,71 110,77 19,2 36,9 36,16 2,20 4,22 14,22 6,0 15,-12 20,-26 z"
       id="path4"
       inkscape:connector-curvature="0" />
  </g>
</svg>
