<?xml version="1.0" encoding="UTF-8" standalone="no"?>
<!-- Created with Inkscape (http://www.inkscape.org/) -->

<svg
   xmlns:dc="http://purl.org/dc/elements/1.1/"
   xmlns:cc="http://creativecommons.org/ns#"
   xmlns:rdf="http://www.w3.org/1999/02/22-rdf-syntax-ns#"
   xmlns:svg="http://www.w3.org/2000/svg"
   xmlns="http://www.w3.org/2000/svg"
   xmlns:sodipodi="http://sodipodi.sourceforge.net/DTD/sodipodi-0.dtd"
   xmlns:inkscape="http://www.inkscape.org/namespaces/inkscape"
   width="100mm"
   height="232mm"
   viewBox="0 0 100 232"
   version="1.1"
   id="svg8"
   inkscape:version="0.92.4 5da689c313, 2019-01-14"
   sodipodi:docname="silhoutteFinal.svg">
  <defs
     id="defs2" />
  <sodipodi:namedview
     id="base"
     pagecolor="#ffffff"
     bordercolor="#666666"
     borderopacity="1.0"
     inkscape:pageopacity="0.0"
     inkscape:pageshadow="2"
     inkscape:zoom="0.7"
     inkscape:cx="400.45123"
     inkscape:cy="444.37422"
     inkscape:document-units="mm"
     inkscape:current-layer="layer1"
     showgrid="false"
     inkscape:window-width="1920"
     inkscape:window-height="1055"
     inkscape:window-x="1920"
     inkscape:window-y="0"
     inkscape:window-maximized="1" />
  <metadata
     id="metadata5">
    <rdf:RDF>
      <cc:Work
         rdf:about="">
        <dc:format>image/svg+xml</dc:format>
        <dc:type
           rdf:resource="http://purl.org/dc/dcmitype/StillImage" />
        <dc:title></dc:title>
      </cc:Work>
    </rdf:RDF>
  </metadata>
  <g
     inkscape:label="main"
     inkscape:groupmode="layer"
     id="layer1"
     style="display:inline;opacity:1"
     transform="translate(0,-65)">
    <path
       style="stroke-width:0.26458332"
       d="m 31.735439,69.502587 c -2.589753,0.03364 -5.139132,1.917417 -6.754628,3.929994 -2.293371,2.857068 -2.923622,6.705123 -2.989482,10.576615 -0.03521,2.070039 0.982287,6.416085 3.829225,14.936039 -0.01077,3.790245 -1.950786,7.220755 -1.950786,7.220755 -2.53904,5.5746 -3.972399,2.96234 -7.695137,10.6195 -1.95459,4.44946 -2.486985,9.00475 -2.343528,13.58832 l -0.0181,-0.005 c -0.553485,12.13317 -3.257325,19.05419 -2.644799,26.03046 0.376936,4.29305 0.0141,6.35858 4.266406,6.9541 0.232317,0.0325 0.448715,0.0616 0.678511,0.0935 -1.670331,6.3837 -5.624454,8.42642 -7.6248577,19.31045 -2.329741,12.67595 2.8544567,17.04488 2.5936417,31.49782 -0.260816,14.45293 -4.7477387,51.42128 -1.8257277,77.15549 1.5870707,0.52702 2.6138367,0.83926 4.9232127,1.12552 -1.461932,4.83543 2.200415,4.4233 8.06669,5.03431 5.866276,0.61101 13.50142,0.23255 19.891809,0.48008 5.983195,-3.12797 6.138145,-4.21238 -0.698664,-5.80223 -5.405922,-1.4903 -6.397855,-2.93859 -12.390974,-5.60328 -5.432455,-5.39261 -3.268144,-27.55868 -1.468647,-40.27764 1.7995,-12.71895 3.234264,-15.9912 3.291274,-24.22178 3.596087,-7.75661 6.82739,-15.93854 9.200472,-25.12198 -1.952799,18.53165 -5.539634,51.47158 -9.251632,84.23517 0.613325,1.01005 5.215268,0.53627 8.051189,0.31781 0.27246,0.47454 -0.487567,2.41945 -0.02946,2.54093 7.370507,1.95441 11.393597,-2.68226 16.652727,-2.57297 -0.0672,0.5041 -0.1856,1.00933 -0.14779,1.51205 0.0397,0.52747 4.18772,0.27959 7.75714,-0.47232 1.78471,-0.37596 3.70499,0.061 4.60592,-1.31517 0.80058,-1.22292 4.08749,-3.42298 5.21829,-3.42098 0.46404,6.77868 -4.92672,12.57103 -13.52062,14.19242 -2.447,0.46167 -4.94207,0.74001 -6.2358,2.95847 -2.18944,3.75443 7.16732,4.35169 12.29073,4.33359 2.54803,-0.009 6.99341,-0.80415 9.48004,-1.93425 1.63513,-0.74311 3.88668,-0.92795 5.641,-1.38648 6.46905,-1.69082 2.62352,-7.01805 2.20451,-10.41331 -0.18458,-1.49569 -0.31635,-3.69844 -0.37465,-6.02289 0.87324,-0.4149 1.69827,-0.41166 2.66857,-0.40566 4.69891,0.0299 4.64734,-1.0082 3.71554,-6.02754 2.20319,1.40296 8.9522,0.76301 8.65942,-0.96842 -3.24642,-19.19826 -11.85693,-74.61914 -15.60215,-85.53121 -4.97804,-14.50402 -12.53945,-15.28082 -13.64361,-23.46833 -1.50271,-11.14262 13.00336,-16.57431 10.50633,-40.44198 3.46798,-1.49388 4.34717,-11.7571 3.49539,-13.95367 -1.80318,-4.65 -4.18496,-8.986237 -4.24366,-15.464179 -0.0812,-8.956362 -6.16889,-16.905702 -15.87552,-15.410944 -5.67622,0.874098 -11.69651,5.346348 -11.36468,11.596706 -0.36385,0.465733 -0.64255,0.821732 -0.87282,1.124479 -0.73215,-0.822116 -1.58087,-1.92223 -0.44751,-4.350121 -0.2356,-0.855297 -0.5659,-4.714467 -0.36019,-5.480285 0.53854,1.030862 0.69235,2.806695 0.9431,1.361157 0.14521,-0.837113 0.31218,-2.327997 0.15658,-3.191021 -0.14286,-0.792302 -0.18109,-1.287343 -1.54875,-2.617411 -4.800693,-4.668753 -10.001925,-6.286008 -16.34525,-6.826457 -0.172741,-0.01471 -0.345664,-0.02032 -0.518313,-0.0181 z m 16.251715,31.083373 c 1.53758,1.87597 1.13227,4.78651 2.44172,5.13509 2.526,0.67244 4.22806,0.11568 5.92056,1.99885 4.19844,4.67142 4.06723,8.90441 1.04439,12.53515 -2.91564,3.50196 -5.34211,8.38826 -11.663893,14.23944 -0.679731,0.62913 -1.250921,1.43358 -1.732193,2.39727 -0.393496,-3.59136 -1.877983,-11.76822 -4.88859,-16.47496 -2.331852,-3.64558 -3.216362,-9.5615 0.45837,-12.68502 0.756938,-0.64339 0.881441,-1.47737 1.172022,-2.27893 1.588339,0.552 7.454834,2.73809 7.510134,-1.41697 0.0243,-1.83199 -0.62462,-2.68436 -0.26252,-3.44992 z"
       id="rect21"
       inkscape:connector-curvature="0" />
  </g>
</svg>
