<?xml version="1.0" standalone="no"?>
<!DOCTYPE svg PUBLIC "-//W3C//DTD SVG 20010904//EN"
 "http://www.w3.org/TR/2001/REC-SVG-20010904/DTD/svg10.dtd">
<svg version="1.0" xmlns="http://www.w3.org/2000/svg"
 width="263.000000pt" height="262.000000pt" viewBox="0 0 263.000000 262.000000"
 preserveAspectRatio="xMidYMid meet">
<metadata>
Created by potrace 1.15, written by Peter Selinger 2001-2017
</metadata>
<g transform="translate(0.000000,262.000000) scale(0.100000,-0.100000)"
fill="#000000" stroke="none">
<path d="M942 2274 c-122 -32 -201 -94 -285 -221 -75 -114 -86 -125 -151 -154
-40 -17 -63 -20 -140 -17 -90 3 -91 3 -94 -22 -6 -36 14 -91 47 -137 39 -55
131 -99 231 -112 85 -11 110 -31 110 -85 0 -42 -22 -72 -100 -138 -159 -135
-239 -301 -227 -474 20 -288 233 -482 619 -566 138 -30 450 -32 603 -4 277 50
450 129 586 266 208 209 271 551 168 905 -29 97 -85 212 -114 231 -36 24 -57
11 -116 -73 -68 -96 -135 -155 -223 -200 -188 -94 -509 -123 -585 -52 -42 39
-29 72 63 162 97 95 131 154 147 257 20 132 -18 259 -102 334 -105 95 -295
139 -437 100z"/>
</g>
</svg>
