<?xml version="1.0" encoding="UTF-8" standalone="no"?>
<svg
   xmlns:dc="http://purl.org/dc/elements/1.1/"
   xmlns:cc="http://creativecommons.org/ns#"
   xmlns:rdf="http://www.w3.org/1999/02/22-rdf-syntax-ns#"
   xmlns:svg="http://www.w3.org/2000/svg"
   xmlns="http://www.w3.org/2000/svg"
   xmlns:sodipodi="http://sodipodi.sourceforge.net/DTD/sodipodi-0.dtd"
   xmlns:inkscape="http://www.inkscape.org/namespaces/inkscape"
   viewBox="0 -256 1850 1850"
   version="1.1"
   id="svg6"
   sodipodi:docname="heart.svg"
   inkscape:export-filename="/home/colmanj/Documents/rsvp/client/src/assets/images/heart.svg.png"
   inkscape:export-xdpi="6.6421623"
   inkscape:export-ydpi="6.6421623"
   inkscape:version="0.92.4 5da689c313, 2019-01-14">
  <metadata
     id="metadata12">
    <rdf:RDF>
      <cc:Work
         rdf:about="">
        <dc:format>image/svg+xml</dc:format>
        <dc:type
           rdf:resource="http://purl.org/dc/dcmitype/StillImage" />
      </cc:Work>
    </rdf:RDF>
  </metadata>
  <defs
     id="defs10" />
  <sodipodi:namedview
     pagecolor="#ffffff"
     bordercolor="#666666"
     borderopacity="1"
     objecttolerance="10"
     gridtolerance="10"
     guidetolerance="10"
     inkscape:pageopacity="0"
     inkscape:pageshadow="2"
     inkscape:window-width="750"
     inkscape:window-height="480"
     id="namedview8"
     showgrid="false"
     inkscape:zoom="0.12756757"
     inkscape:cx="925"
     inkscape:cy="925"
     inkscape:window-x="743"
     inkscape:window-y="216"
     inkscape:window-maximized="0"
     inkscape:current-layer="svg6" />
  <g
     transform="matrix(1,0,0,-1,37.966102,1343.4237)"
     id="g4">
    <path
       d="m 896,-128 q -26,0 -44,18 L 228,492 q -10,8 -27.5,26 Q 183,536 145,583.5 107,631 77,681 47,731 23.5,802 0,873 0,940 q 0,220 127,344 127,124 351,124 62,0 126.5,-21.5 64.5,-21.5 120,-58 55.5,-36.5 95.5,-68.5 40,-32 76,-68 36,36 76,68 40,32 95.5,68.5 55.5,36.5 120,58 64.5,21.5 126.5,21.5 224,0 351,-124 127,-124 127,-344 0,-221 -229,-450 L 940,-110 q -18,-18 -44,-18"
       id="path2" />
  </g>
</svg>
