<?xml version="1.0" encoding="UTF-8" standalone="no"?>
<!-- Created with Inkscape (http://www.inkscape.org/) -->

<svg
   xmlns:dc="http://purl.org/dc/elements/1.1/"
   xmlns:cc="http://creativecommons.org/ns#"
   xmlns:rdf="http://www.w3.org/1999/02/22-rdf-syntax-ns#"
   xmlns:svg="http://www.w3.org/2000/svg"
   xmlns="http://www.w3.org/2000/svg"
   xmlns:sodipodi="http://sodipodi.sourceforge.net/DTD/sodipodi-0.dtd"
   xmlns:inkscape="http://www.inkscape.org/namespaces/inkscape"
   width="1103.1074"
   height="1280.0009"
   viewBox="0 0 291.86384 338.6669"
   version="1.1"
   id="svg919"
   inkscape:version="0.92.4 5da689c313, 2019-01-14"
   sodipodi:docname="pattern.svg">
  <defs
     id="defs913" />
  <sodipodi:namedview
     id="base"
     pagecolor="#ffffff"
     bordercolor="#666666"
     borderopacity="1.0"
     inkscape:pageopacity="0.0"
     inkscape:pageshadow="2"
     inkscape:zoom="0.49497475"
     inkscape:cx="374.35889"
     inkscape:cy="721.35042"
     inkscape:document-units="mm"
     inkscape:current-layer="layer1"
     showgrid="true"
     units="px"
     inkscape:snap-page="false"
     inkscape:object-nodes="true"
     inkscape:snap-center="false"
     inkscape:window-width="1920"
     inkscape:window-height="1004"
     inkscape:window-x="0"
     inkscape:window-y="0"
     inkscape:window-maximized="1"
     inkscape:snap-intersection-paths="true"
     inkscape:snap-object-midpoints="true"
     inkscape:snap-grids="false"
     inkscape:snap-smooth-nodes="false"
     inkscape:snap-bbox="false"
     inkscape:snap-global="true"
     objecttolerance="20"
     guidetolerance="20"
     inkscape:object-paths="false"
     fit-margin-top="0"
     fit-margin-left="0"
     fit-margin-right="0"
     fit-margin-bottom="0">
    <inkscape:grid
       type="xygrid"
       id="grid1700"
       spacingx="33.866667"
       spacingy="33.866667"
       originx="316.4492"
       originy="38.547924" />
  </sodipodi:namedview>
  <metadata
     id="metadata916">
    <rdf:RDF>
      <cc:Work
         rdf:about="">
        <dc:format>image/svg+xml</dc:format>
        <dc:type
           rdf:resource="http://purl.org/dc/dcmitype/StillImage" />
        <dc:title />
      </cc:Work>
    </rdf:RDF>
  </metadata>
  <g
     inkscape:label="Layer 1"
     inkscape:groupmode="layer"
     id="layer1"
     transform="translate(159.63728,24.839802)"
     style="opacity:1">
    <path
       style="display:inline;opacity:1;fill:#000000;fill-opacity:1;stroke:none;stroke-width:2.36883497;stroke-linecap:round;stroke-miterlimit:4;stroke-dasharray:none;stroke-opacity:1"
       d="m 23.185547,0 1.308594,2.265625 c 1.61987,2.80577 5.182541,3.760565 7.988281,2.140625 L 40.113281,0 Z M 106.49414,0 73.484375,19.058594 c -2.80577,1.61991 -3.760485,5.182511 -2.140625,7.988281 l 3.529297,6.113281 c 1.61994,2.80573 5.182471,3.760525 7.988281,2.140625 L 144.00391,0 Z m 97.25781,0 -82.5039,47.632812 c -2.80581,1.61994 -3.76054,5.182512 -2.14063,7.988282 l 3.5293,6.115234 c 1.61991,2.80577 5.1845,3.760495 7.99023,2.140625 L 241.26367,0 Z m 96.15039,0 -128.77343,74.347656 c -2.80581,1.61995 -3.76054,5.184465 -2.14063,7.990235 l 3.53125,6.113281 c 1.61998,2.80577 5.18251,3.760495 7.98828,2.140625 L 337.41797,0 Z m 105.99219,0 v 15.947266 c 0,3.23985 2.60981,5.847656 5.84961,5.847656 h 7.05859 c 3.23981,0 5.84961,-2.607806 5.84961,-5.847656 V 0 Z m 48.07813,0 v 45.789062 c 0,3.23981 2.6078,5.847657 5.84765,5.847657 h 7.06055 c 3.23981,0 5.84766,-2.607847 5.84766,-5.847657 V 0 Z m 48.6289,0 v 72.865234 c 0,3.23977 2.60781,5.84961 5.84766,5.84961 h 7.06055 c 3.23981,0 5.84765,-2.60984 5.84765,-5.84961 V 0 Z m 51.94532,0 v 101.04883 c 0,3.23977 2.60784,5.84765 5.84765,5.84765 h 7.06055 c 3.23981,0 5.84765,-2.60788 5.84765,-5.84765 V 0 Z m 51.94531,0 v 72.865234 c 0,3.23977 2.60788,5.84961 5.84765,5.84961 h 7.06055 c 3.23985,0 5.84766,-2.60984 5.84766,-5.84961 V 0 Z m 48.6289,0 v 45.789062 c 0,3.23981 2.60781,5.847657 5.84766,5.847657 h 7.06055 c 3.23981,0 5.84765,-2.607847 5.84765,-5.847657 V 0 Z m 48.07618,0 v 15.947266 c 0,3.23985 2.60787,5.847656 5.84765,5.847656 h 7.06055 c 3.23978,0 5.84765,-2.607806 5.84765,-5.847656 V 0 Z m 90.91015,0 152.98438,88.326172 c 2.80576,1.6199 6.3703,0.665185 7.99023,-2.140625 l 3.5293,-6.113281 c 1.61989,-2.80577 0.66513,-6.368342 -2.14063,-7.988282 L 831.61719,0 Z m 96.1543,0 106.71289,61.611328 c 2.80577,1.61987 6.36829,0.665105 7.98829,-2.140625 l 3.5293,-6.113281 c 1.6199,-2.80577 0.6651,-6.370365 -2.1406,-7.990234 L 927.77344,0 Z m 97.25781,0 57.21877,33.035156 c 2.8056,1.61991 6.3684,0.665145 7.9883,-2.140625 l 3.5312,-6.113281 c 1.6199,-2.80574 0.665,-6.368371 -2.1406,-7.988281 L 1025.0312,0 Z m 103.89257,0 3.707,2.140625 C 1097.925,3.760535 1101.4875,2.8058 1103.1074,0 Z M 350.49219,16.570312 c -2.07301,-0.056 -4.10505,0.996786 -5.21875,2.925782 l -3.5293,6.115234 c -1.61993,2.805766 -0.66539,6.368368 2.14063,7.988281 L 542.35352,148.18555 c 2.80577,1.61987 6.36837,0.66518 7.98828,-2.14063 l 3.52929,-6.11523 c 1.62002,-2.80577 0.66553,-6.3684 -2.14062,-7.98828 L 353.26367,17.355469 c -0.87681,-0.506222 -1.8292,-0.7597 -2.77148,-0.785157 z M 10.677734,18.496094 c -3.2398096,0 -5.8476559,2.609799 -5.8476559,5.849609 V 423.71875 c 0,3.23977 2.6078463,5.84766 5.8476559,5.84766 h 7.060547 c 3.23981,0 5.847657,-2.60789 5.847657,-5.84766 V 24.345703 c 0,-3.23981 -2.607847,-5.849609 -5.847657,-5.849609 z m 762.755856,0.33789 c -0.94227,0.02546 -1.89272,0.280888 -2.76953,0.78711 L 572.19531,134.20703 c -2.80607,1.61989 -3.76049,5.18252 -2.14062,7.98828 l 3.52929,6.11524 c 1.61987,2.8058 5.18252,3.76057 7.98829,2.14062 L 780.04102,35.865234 c 2.80603,-1.619909 3.76053,-5.182515 2.14062,-7.988281 l -3.5293,-6.115234 c -1.11368,-1.928998 -3.14575,-2.983739 -5.21875,-2.927735 z M 300.61133,43.285156 c -2.07301,-0.056 -4.10505,0.996783 -5.21875,2.925782 l -3.5293,6.115234 c -1.61992,2.805766 -0.66518,6.368372 2.14063,7.988281 L 544.1582,204.74023 c 2.80577,1.61991 6.36838,0.66714 7.98828,-2.13867 l 3.5293,-6.11523 c 1.61998,-2.80577 0.66549,-6.36834 -2.14062,-7.98828 L 303.38086,44.072266 c -0.8768,-0.506222 -1.82725,-0.761653 -2.76953,-0.78711 z m 522.70312,2.265625 c -0.94229,0.02546 -1.89272,0.278935 -2.76953,0.785157 L 570.39062,190.76367 c -2.80599,1.61987 -3.76053,5.18255 -2.14062,7.98828 l 3.5293,6.11328 c 1.6199,2.80581 5.18251,3.76053 7.98828,2.14063 L 829.92188,62.580078 c 2.80607,-1.619909 3.76049,-5.182519 2.14062,-7.988281 l -3.5293,-6.115235 c -1.11366,-1.928985 -3.1457,-2.981785 -5.21875,-2.925781 z M 62.623047,46.679688 c -3.23977,0 -5.847656,2.607846 -5.847656,5.847656 V 395.53711 c 0,3.23977 2.607886,5.84766 5.847656,5.84766 h 7.060547 c 3.23985,0 5.847656,-2.60789 5.847656,-5.84766 V 52.527344 c 0,-3.23981 -2.607806,-5.847656 -5.847656,-5.847656 z m 999.216753,0 c -3.2398,0 -5.8476,2.607846 -5.8476,5.847656 V 395.53711 c 0,3.23977 2.6078,5.84766 5.8476,5.84766 h 7.0606 c 3.2398,0 5.8476,-2.60789 5.8476,-5.84766 V 52.527344 c 0,-3.23981 -2.6078,-5.847656 -5.8476,-5.847656 z M 252.84766,71.859375 c -2.07302,-0.056 -4.10508,0.998747 -5.21875,2.927734 l -3.5293,6.115235 c -1.61989,2.805766 -0.66518,6.368375 2.14062,7.988281 L 543.29297,260.39453 c 2.80581,1.61991 6.36834,0.66518 7.98828,-2.14062 l 3.53125,-6.11524 c 1.61998,-2.80577 0.66545,-6.36837 -2.14062,-7.98828 L 255.61719,72.646484 c -0.8768,-0.506221 -1.82725,-0.761653 -2.76953,-0.787109 z m -141.59571,1.898437 c -3.23985,0 -5.84765,2.607847 -5.84765,5.847657 V 368.45898 c 0,3.23981 2.6078,5.84766 5.84765,5.84766 h 7.06055 c 3.23982,0 5.84766,-2.60785 5.84766,-5.84766 V 79.605469 c 0,-3.23981 -2.60784,-5.847656 -5.84766,-5.847657 z m 901.95895,0 c -3.2398,0 -5.8476,2.607847 -5.8476,5.847657 V 368.45898 c 0,3.23981 2.6078,5.84766 5.8476,5.84766 h 7.0606 c 3.2398,0 5.8476,-2.60785 5.8476,-5.84766 V 79.605469 c 0,-3.23981 -2.6078,-5.847657 -5.8476,-5.847657 z M 871.07812,74.125 c -0.94226,0.02546 -1.89272,0.280888 -2.76953,0.787109 L 571.25391,246.41602 c -2.80615,1.6199 -3.7605,5.18254 -2.14063,7.98828 l 3.53125,6.11523 c 1.61987,2.80581 5.18251,3.76057 7.98828,2.14063 L 877.6875,91.15625 c 2.80603,-1.619909 3.76057,-5.184468 2.14062,-7.990234 l -3.53124,-6.113282 c -1.11372,-1.928995 -3.14577,-2.983739 -5.21876,-2.927734 z m -668.60937,28.62891 c -2.07301,-0.056 -4.10506,0.99874 -5.21875,2.92773 l -3.53125,6.11328 c -1.61991,2.80577 -0.66522,6.36838 2.14063,7.98828 l 345.86914,199.6875 c 2.8058,1.61991 6.36837,0.66519 7.98828,-2.14062 l 3.52929,-6.11328 c 1.61995,-2.80577 0.66538,-6.36838 -2.14062,-7.98828 L 205.23828,103.54102 c -0.87679,-0.50623 -1.82725,-0.76166 -2.76953,-0.78711 z m -43.13867,0.84375 c -3.23977,0 -5.84766,2.60788 -5.84766,5.84765 v 229.17188 c 0,3.23985 2.60789,5.84765 5.84766,5.84765 h 7.05859 c 3.23977,0 5.84961,-2.6078 5.84961,-5.84765 V 109.44531 c 0,-3.23977 -2.60984,-5.84765 -5.84961,-5.84765 z m 805.80469,0 c -3.23981,0 -5.84766,2.60788 -5.84766,5.84765 v 229.17188 c 0,3.23985 2.60785,5.84765 5.84766,5.84765 h 7.05859 c 3.23981,0 5.84961,-2.6078 5.84961,-5.84765 V 109.44531 c 0,-3.23977 -2.6098,-5.84765 -5.84961,-5.84765 z m -43.67579,1.42187 c -0.94227,0.0254 -1.89274,0.28089 -2.76953,0.78711 l -345.86914,199.6875 c -2.80581,1.61998 -3.76053,5.18251 -2.14062,7.98828 l 3.52929,6.11328 c 1.61987,2.80577 5.18255,3.76057 7.98829,2.14063 l 345.86914,-199.6875 c 2.80577,-1.61991 3.76049,-5.18252 2.14062,-7.98828 l -3.5293,-6.11328 c -1.11365,-1.92897 -3.14575,-2.98373 -5.21875,-2.92774 z m -720.55664,56.8125 c -2.07302,-0.056 -4.10506,0.99684 -5.21875,2.92578 l -3.53125,6.11524 c -1.6199,2.80577 -0.66514,6.36841 2.14063,7.98828 l 297.05469,171.5039 c 2.80562,1.61991 6.36837,0.66515 7.98828,-2.14062 l 3.53125,-6.11328 c 1.61987,-2.80573 0.66503,-6.36838 -2.14063,-7.98828 L 203.67188,162.61719 c -0.87681,-0.50623 -1.82725,-0.7597 -2.76954,-0.78516 z m 722.1211,2.26563 c -0.94229,0.0255 -1.89273,0.27893 -2.76953,0.78515 L 623.19922,336.38867 c -2.80577,1.61991 -3.76049,5.18251 -2.14063,7.98828 l 3.53125,6.11328 c 1.61995,2.80574 5.18248,3.76053 7.98828,2.14063 L 929.63086,181.12695 c 2.80577,-1.6199 3.76053,-5.18255 2.14062,-7.98828 l -3.52929,-6.11523 c -1.11369,-1.92897 -3.14572,-2.98178 -5.21875,-2.92578 z m -722.98633,53.38672 c -2.07301,-0.056 -4.10507,0.99879 -5.21875,2.92773 l -3.5293,6.11328 c -1.6199,2.80577 -0.66514,6.36841 2.14063,7.98828 l 250.15429,144.42774 c 2.80577,1.61986 6.36834,0.6651 7.98829,-2.14063 l 3.52929,-6.11523 c 1.61987,-2.80577 0.66511,-6.36842 -2.14062,-7.98828 L 202.80664,218.27148 c -0.87679,-0.50622 -1.82725,-0.76166 -2.76953,-0.7871 z M 923.88867,219.75 c -0.94228,0.0255 -1.89271,0.2809 -2.76953,0.78711 l -250.1543,144.42578 c -2.8058,1.61994 -3.76053,5.18251 -2.14062,7.98828 l 3.5293,6.11524 c 1.6199,2.80577 5.18254,3.76049 7.98828,2.14062 L 930.49609,236.7793 c 2.80577,-1.61995 3.76053,-5.18255 2.14063,-7.98828 l -3.5293,-6.11329 c -1.11368,-1.92896 -3.14574,-2.98371 -5.21875,-2.92773 z M 201.8418,274.04102 c -2.07301,-0.056 -4.10504,0.99879 -5.21875,2.92773 l -3.5293,6.11328 c -1.61994,2.80581 -0.66515,6.36838 2.14063,7.98828 l 198.46679,114.58594 c 2.80576,1.61991 6.37031,0.66518 7.99024,-2.14063 l 3.52929,-6.11328 c 1.61989,-2.80577 0.66514,-6.36833 -2.14062,-7.98828 L 204.61133,274.82812 c -0.87681,-0.5062 -1.82726,-0.76166 -2.76953,-0.7871 z m 720.24218,2.26562 c -0.94228,0.0254 -1.8927,0.27895 -2.76953,0.78516 L 720.8457,391.67773 c -2.8058,1.61995 -3.76053,5.18447 -2.14062,7.99024 l 3.5293,6.11328 c 1.61998,2.80577 5.18251,3.76049 7.98828,2.14063 L 928.69141,293.33594 c 2.80577,-1.61991 3.76053,-5.18255 2.14062,-7.98828 l -3.5293,-6.11524 c -1.11368,-1.92897 -3.14572,-2.98177 -5.21875,-2.92578 z m -361.68945,59.51953 c -3.23981,0 -5.84765,2.60785 -5.84765,5.84766 v 399.375 c 0,3.23977 2.60784,5.84765 5.84765,5.84765 h 7.06055 c 3.23981,0 5.84765,-2.60788 5.84765,-5.84765 v -399.375 c 0,-3.23981 -2.60784,-5.84766 -5.84765,-5.84766 z m 343.48828,3.41406 c -2.07301,-0.056 -4.10506,0.9968 -5.21875,2.92579 l -3.52929,6.11523 c -1.61993,2.80576 -0.6654,6.36836 2.14062,7.98828 l 198.46871,114.58594 c 2.4879,1.43631 5.5672,0.84392 7.3633,-1.26367 V 453.44922 L 906.6543,340.02539 c -0.87681,-0.50622 -1.82922,-0.7597 -2.77149,-0.78516 z m -680.16601,2.26563 c -0.94227,0.0255 -1.89273,0.27894 -2.76953,0.78516 L 22.478516,456.87695 c -2.80607,1.61989 -3.760495,5.18252 -2.140625,7.98828 l 3.529297,6.11524 c 1.619869,2.80581 5.184464,3.76056 7.990234,2.14062 L 230.32422,358.53516 c 2.80604,-1.61991 3.76052,-5.18252 2.14062,-7.98828 l -3.52929,-6.11524 c -1.11368,-1.929 -3.14575,-2.98179 -5.21875,-2.92578 z m 284.73242,22.50391 c -3.23985,0 -5.84766,2.60784 -5.84766,5.84765 v 343.00781 c 0,3.23978 2.60781,5.84961 5.84766,5.84961 h 7.06055 c 3.23981,0 5.84765,-2.60983 5.84765,-5.84961 V 369.85742 c 0,-3.23981 -2.60784,-5.84765 -5.84765,-5.84765 z m 103.89062,0 c -3.23977,0 -5.84765,2.60784 -5.84765,5.84765 v 343.00781 c 0,3.23978 2.60788,5.84961 5.84765,5.84961 h 7.06055 c 3.23985,0 5.84766,-2.60983 5.84766,-5.84961 V 369.85742 c 0,-3.23981 -2.60781,-5.84765 -5.84766,-5.84765 z m 241.66211,1.94531 c -2.07301,-0.056 -4.10505,0.99873 -5.21875,2.92773 l -3.52929,6.11328 c -1.61992,2.80577 -0.66519,6.36838 2.14062,7.98829 l 250.15427,144.42773 c 1.7787,1.02688 3.8593,1.01425 5.5586,0.15625 V 508.96289 L 856.77148,366.74219 c -0.8768,-0.50622 -1.82726,-0.76165 -2.76953,-0.78711 z m -580.40429,2.26562 c -0.9423,0.0255 -1.89274,0.27893 -2.76954,0.78516 L 20.673828,513.43359 c -2.80599,1.61987 -3.760535,5.18256 -2.140625,7.98829 l 3.53125,6.11328 c 1.6199,2.80581 5.182511,3.76052 7.988281,2.14062 L 280.20703,385.25 c 2.80607,-1.61991 3.7605,-5.18252 2.14063,-7.98828 l -3.53125,-6.11524 c -1.11366,-1.92898 -3.1457,-2.98179 -5.21875,-2.92578 z m 186.22265,22.86719 c -3.23985,0 -5.84765,2.60785 -5.84765,5.84766 v 288.85351 c 0,3.23981 2.6078,5.84766 5.84765,5.84766 h 7.06055 c 3.23981,0 5.84766,-2.60785 5.84766,-5.84766 V 396.93555 c 0,-3.23981 -2.60785,-5.84766 -5.84766,-5.84766 z m 201.14844,0 c -3.23985,0 -5.84766,2.60785 -5.84766,5.84766 v 288.85351 c 0,3.23981 2.60781,5.84766 5.84766,5.84766 h 7.06055 c 3.23981,0 5.84765,-2.60785 5.84765,-5.84766 V 396.93555 c 0,-3.23981 -2.60784,-5.84766 -5.84765,-5.84766 z m 145.26953,3.44336 c -2.07302,-0.056 -4.10508,0.99679 -5.21875,2.92578 l -3.5293,6.11524 c -1.61989,2.80577 -0.66517,6.36838 2.14063,7.98828 l 297.05274,171.5039 c 2.0939,1.20892 4.6088,0.98318 6.4238,-0.375 V 565.11328 L 809.00781,395.31641 c -0.8768,-0.50622 -1.82725,-0.75971 -2.76953,-0.78516 z m -484.875,2.26367 c -0.94227,0.0254 -1.89468,0.28089 -2.77148,0.78711 L 21.539062,569.08594 c -2.806149,1.61991 -3.760494,5.18254 -2.140624,7.98828 l 3.529296,6.11523 c 1.61987,2.80581 5.182512,3.76058 7.988282,2.14063 L 327.9707,413.82617 c 2.80603,-1.61991 3.76058,-5.18446 2.14063,-7.99023 l -3.5293,-6.11328 c -1.11372,-1.92899 -3.14577,-2.98375 -5.21875,-2.92774 z m 90.38086,24.13281 c -3.23981,0 -5.84961,2.60789 -5.84961,5.84766 v 229.17188 c 0,3.23984 2.6098,5.84765 5.84961,5.84765 h 7.05859 c 3.23982,0 5.84961,-2.60781 5.84961,-5.84765 V 426.77539 c 0,-3.23977 -2.60979,-5.84766 -5.84961,-5.84766 z m 297.30078,0 c -3.23977,0 -5.84765,2.60789 -5.84765,5.84766 v 229.17188 c 0,3.23984 2.60788,5.84765 5.84765,5.84765 h 7.06055 c 3.23977,0 5.84765,-2.60781 5.84765,-5.84765 V 426.77539 c 0,-3.23977 -2.60788,-5.84766 -5.84765,-5.84766 z m 46.81446,4.4961 c -2.07302,-0.056 -4.10507,0.99874 -5.21876,2.92773 l -3.53124,6.11328 c -1.61991,2.80577 -0.66519,6.37034 2.14062,7.99024 l 345.8691,199.68554 c 2.8059,1.61991 6.3684,0.66518 7.9883,-2.14062 V 625.09766 L 758.62891,426.21094 c -0.8768,-0.50622 -1.82726,-0.76165 -2.76953,-0.78711 z m -384.11719,2.26562 c -0.94227,0.0254 -1.89274,0.28089 -2.76953,0.78711 L 23.103516,628.16406 c -2.80581,1.61998 -3.760535,5.18251 -2.140625,7.98828 l 3.53125,6.11328 c 1.61987,2.80577 5.182541,3.76057 7.988281,2.14063 L 378.34961,444.71875 c 2.80577,-1.61991 3.76049,-5.18251 2.14062,-7.98828 l -3.52929,-6.11328 c -1.11366,-1.92896 -3.14575,-2.98373 -5.21875,-2.92774 z M 0,453.44727 v 16.14453 c 0.22956,-0.26936 0.44143,-0.559 0.625,-0.87696 l 3.53125,-6.11523 c 1.62002,-2.80577 0.665525,-6.36839 -2.140625,-7.98828 z m 754.29297,31.05468 c -2.07301,-0.056 -4.10506,0.9988 -5.21875,2.92774 l -3.5293,6.11328 c -1.61991,2.80578 -0.6671,6.36841 2.13867,7.98828 l 297.05471,171.50391 c 2.8056,1.61991 6.3684,0.66514 7.9883,-2.14063 l 3.5312,-6.11328 c 1.6199,-2.80574 0.665,-6.36837 -2.1406,-7.98828 L 757.0625,485.28906 c -0.8768,-0.50623 -1.82725,-0.76166 -2.76953,-0.78711 z m -380.98633,2.26563 c -0.94228,0.0255 -1.89272,0.27893 -2.76953,0.78515 L 73.484375,659.05859 c -2.80577,1.61991 -3.760485,5.18252 -2.140625,7.98829 l 3.529297,6.11328 c 1.61994,2.80573 5.182471,3.76052 7.988281,2.14062 L 379.91602,503.79688 c 2.80577,-1.6199 3.76053,-5.18256 2.14062,-7.98829 l -3.53125,-6.11523 c -1.11369,-1.92897 -3.14571,-2.98177 -5.21875,-2.92578 z M 0,508.96289 v 18.60547 c 0.98135999,-0.4955 1.8366675,-1.26972 2.4296875,-2.29688 l 3.53125,-6.11523 c 1.61998,-2.80577 0.665485,-6.36833 -2.140625,-7.98828 z m 753.42773,31.19141 c -2.07302,-0.056 -4.10506,0.99879 -5.21875,2.92773 l -3.52929,6.11328 c -1.61991,2.80577 -0.66515,6.36841 2.14062,7.98828 l 250.1543,144.42774 c 2.80577,1.61987 6.36829,0.6651 7.98829,-2.14063 l 3.5293,-6.11328 c 1.6199,-2.80577 0.6651,-6.37036 -2.1406,-7.99023 L 756.19727,540.94141 c -0.8768,-0.50622 -1.82726,-0.76166 -2.76954,-0.78711 z m -379.25585,2.26562 c -0.94228,0.0254 -1.89273,0.2809 -2.76954,0.78711 L 121.24805,687.63281 c -2.80581,1.61994 -3.76054,5.18251 -2.14063,7.98828 l 3.5293,6.11524 c 1.61991,2.80577 5.1845,3.76049 7.99023,2.14062 l 250.1543,-144.42773 c 2.80577,-1.61995 3.75857,-5.18254 2.13867,-7.98828 l -3.5293,-6.11328 c -1.11368,-1.92896 -3.14574,-2.98372 -5.21874,-2.92774 z M 0,565.11328 v 17.57617 c 0.61753999,-0.46186 1.1551463,-1.05329 1.5664062,-1.76562 l 3.5292969,-6.11328 c 1.61998,-2.80577 0.665445,-6.37034 -2.140625,-7.99024 z m 755.23242,31.59766 c -2.07302,-0.056 -4.10506,0.99879 -5.21875,2.92773 l -3.52929,6.11328 c -1.61991,2.80581 -0.66514,6.36838 2.14062,7.98828 l 198.4668,114.58594 c 2.80576,1.6199 6.3703,0.66519 7.99023,-2.14062 l 3.5293,-6.11328 c 1.61989,-2.80577 0.66513,-6.36835 -2.14063,-7.98829 L 758.00195,597.49805 c -0.8768,-0.50621 -1.82725,-0.76166 -2.76953,-0.78711 z m -382.86523,2.26562 c -0.94228,0.0254 -1.8927,0.2809 -2.76953,0.78711 L 171.12891,714.34766 c -2.80581,1.61995 -3.76054,5.18446 -2.14063,7.99023 l 3.53125,6.11328 c 1.61998,2.80577 5.18251,3.7605 7.98828,2.14063 L 378.97656,616.00586 c 2.80577,-1.61991 3.76054,-5.18254 2.14063,-7.98828 l -3.53125,-6.11524 c -1.11368,-1.92897 -3.14573,-2.98178 -5.21875,-2.92578 z M 0,625.0957 V 640 l 3.53125,-6.11328 c 1.61995,-2.80578 0.665375,-6.36837 -2.140625,-7.98828 z m 350.49219,31.47461 c -2.07301,-0.056 -4.10505,0.99679 -5.21875,2.92578 l -3.5293,6.11524 c -1.61992,2.80577 -0.66539,6.36837 2.14063,7.98828 l 198.46875,114.58594 c 2.80577,1.61987 6.36837,0.66518 7.98828,-2.14063 l 3.52929,-6.11523 c 1.62002,-2.80577 0.66553,-6.36841 -2.14062,-7.98828 L 353.26367,657.35547 c -0.87682,-0.50623 -1.8292,-0.7597 -2.77148,-0.78516 z m -339.814456,1.92578 c -3.2398096,0 -5.8476559,2.6098 -5.8476559,5.84961 v 399.3731 c 0,3.2397 2.6078463,5.8476 5.8476559,5.8476 h 7.060547 c 3.23981,0 5.847657,-2.6079 5.847657,-5.8476 V 664.3457 c 0,-3.23981 -2.607847,-5.84961 -5.847657,-5.84961 z m 762.755856,0.33789 c -0.94227,0.0255 -1.89273,0.28089 -2.76953,0.78711 L 572.19531,774.20703 c -2.80607,1.6199 -3.76049,5.18251 -2.14062,7.98828 l 3.52929,6.11524 c 1.61987,2.80581 5.18252,3.76056 7.98829,2.14062 L 780.04102,675.86523 c 2.80603,-1.6199 3.76053,-5.18251 2.14062,-7.98828 l -3.5293,-6.11523 c -1.11369,-1.929 -3.14575,-2.98374 -5.21875,-2.92774 z m -472.82226,24.45118 c -2.07301,-0.056 -4.10505,0.99871 -5.21875,2.92773 l -3.5293,6.11328 c -1.61993,2.80577 -0.66518,6.36837 2.14063,7.98828 L 544.1582,844.74023 c 2.80577,1.61991 6.36838,0.66714 7.98828,-2.13867 l 3.5293,-6.11523 c 1.61998,-2.80577 0.66549,-6.36833 -2.14062,-7.98828 L 303.38086,684.07227 c -0.8768,-0.50622 -1.82725,-0.76165 -2.76953,-0.78711 z m 522.70312,2.26562 c -0.9423,0.0254 -1.89273,0.27894 -2.76953,0.78516 l -250.1543,144.42773 c -2.80599,1.61987 -3.76052,5.18255 -2.14062,7.98828 l 3.5293,6.11328 c 1.6199,2.80581 5.18251,3.76053 7.98828,2.14063 l 250.1543,-144.42578 c 2.80606,-1.6199 3.76049,-5.18254 2.14062,-7.98828 l -3.5293,-6.11524 c -1.11366,-1.92897 -3.1457,-2.98179 -5.21875,-2.92578 z m -760.691403,1.12891 c -3.23977,0 -5.847656,2.60784 -5.847656,5.84765 v 343.00976 c 0,3.2398 2.607886,5.8477 5.847656,5.8477 h 7.060547 c 3.23985,0 5.847656,-2.6079 5.847656,-5.8477 V 692.52734 c 0,-3.23981 -2.607806,-5.84765 -5.847656,-5.84765 z m 999.216753,0 c -3.2398,0 -5.8476,2.60784 -5.8476,5.84765 v 343.00976 c 0,3.2398 2.6078,5.8477 5.8476,5.8477 h 7.0606 c 3.2398,0 5.8476,-2.6079 5.8476,-5.8477 V 692.52734 c 0,-3.23981 -2.6078,-5.84765 -5.8476,-5.84765 z m -808.99214,25.17969 c -2.07302,-0.056 -4.10508,0.99873 -5.21875,2.92773 l -3.5293,6.11523 c -1.61989,2.80577 -0.66519,6.36839 2.14062,7.98828 l 297.05274,171.50391 c 2.80581,1.6199 6.36834,0.66519 7.98828,-2.14062 l 3.53125,-6.11524 c 1.61998,-2.80577 0.66545,-6.36838 -2.14062,-7.98828 L 255.61719,712.64648 c -0.8768,-0.50622 -1.82725,-0.76165 -2.76953,-0.7871 z m -141.59571,1.89843 c -3.23985,0 -5.84765,2.60785 -5.84765,5.84766 V 1008.459 c 0,3.2398 2.6078,5.8476 5.84765,5.8476 h 7.06055 c 3.23982,0 5.84766,-2.6078 5.84766,-5.8476 V 719.60547 c 0,-3.23981 -2.60784,-5.84766 -5.84766,-5.84766 z m 901.95895,0 c -3.2398,0 -5.8476,2.60785 -5.8476,5.84766 V 1008.459 c 0,3.2398 2.6078,5.8476 5.8476,5.8476 h 7.0606 c 3.2398,0 5.8476,-2.6078 5.8476,-5.8476 V 719.60547 c 0,-3.23981 -2.6078,-5.84766 -5.8476,-5.84766 z M 871.07812,714.125 c -0.94226,0.0254 -1.89273,0.28089 -2.76953,0.78711 L 571.25391,886.41602 c -2.80615,1.61991 -3.7605,5.18255 -2.14063,7.98828 l 3.53125,6.11523 c 1.61987,2.80581 5.18251,3.76058 7.98828,2.14063 L 877.6875,731.15625 c 2.80604,-1.61991 3.76056,-5.18446 2.14062,-7.99023 l -3.53124,-6.11329 c -1.11371,-1.92899 -3.14577,-2.98374 -5.21876,-2.92773 z m -668.60937,28.62891 c -2.073,-0.056 -4.10506,0.99876 -5.21875,2.92773 l -3.53125,6.11328 c -1.6199,2.80577 -0.66522,6.37034 2.14063,7.99024 L 541.72852,959.4707 c 2.8058,1.6199 6.36837,0.66519 7.98828,-2.14062 l 3.52929,-6.11328 c 1.61995,-2.80577 0.66538,-6.36837 -2.14062,-7.98828 L 205.23828,743.54102 c -0.8768,-0.50623 -1.82725,-0.76165 -2.76953,-0.78711 z m -43.13867,0.84375 c -3.23977,0 -5.84766,2.60788 -5.84766,5.84765 v 229.17188 c 0,3.23985 2.60789,5.84765 5.84766,5.84765 h 7.05859 c 3.23977,0 5.84961,-2.6078 5.84961,-5.84765 V 749.44531 c 0,-3.23977 -2.60984,-5.84765 -5.84961,-5.84765 z m 805.80469,0 c -3.23981,0 -5.84766,2.60788 -5.84766,5.84765 v 229.17188 c 0,3.23985 2.60785,5.84765 5.84766,5.84765 h 7.05859 c 3.23981,0 5.84961,-2.6078 5.84961,-5.84765 V 749.44531 c 0,-3.23977 -2.6098,-5.84765 -5.84961,-5.84765 z m -43.67579,1.42187 c -0.94227,0.0254 -1.89274,0.28087 -2.76953,0.78711 l -345.86914,199.6875 c -2.80581,1.61998 -3.76053,5.18251 -2.14062,7.98828 l 3.52929,6.11328 c 1.61987,2.80577 5.18255,3.76058 7.98829,2.14063 l 345.86914,-199.6875 c 2.80577,-1.6199 3.76048,-5.18254 2.14062,-7.98828 l -3.5293,-6.11328 c -1.11366,-1.92897 -3.14576,-2.98374 -5.21875,-2.92774 z m -720.55664,56.8125 c -2.07302,-0.056 -4.10507,0.99684 -5.21875,2.92578 l -3.53125,6.11524 c -1.61991,2.80577 -0.66514,6.36842 2.14063,7.98828 l 297.05469,171.5039 c 2.80562,1.61991 6.36838,0.66515 7.98828,-2.14062 l 3.53125,-6.11328 c 1.61987,-2.80573 0.66503,-6.36837 -2.14063,-7.98828 L 203.67188,802.61914 c -0.8768,-0.50624 -1.82726,-0.76166 -2.76954,-0.78711 z m 722.1211,2.26563 c -0.94229,0.0255 -1.89273,0.27893 -2.76953,0.78515 L 623.19922,976.38867 c -2.80577,1.6199 -3.76049,5.18251 -2.14063,7.98828 l 3.53125,6.11328 c 1.61995,2.80573 5.18248,3.76053 7.98828,2.14063 L 929.63086,821.12695 c 2.80577,-1.61991 3.76052,-5.18255 2.14062,-7.98828 l -3.52929,-6.11523 c -1.11368,-1.92896 -3.14572,-2.98177 -5.21875,-2.92578 z m -722.98633,53.38672 c -2.073,-0.056 -4.10506,0.99878 -5.21875,2.92773 l -3.5293,6.11328 c -1.61991,2.80577 -0.66514,6.36841 2.14063,7.98828 l 250.15429,144.42773 c 2.80577,1.6199 6.36835,0.6651 7.98829,-2.1406 l 3.52929,-6.1153 c 1.61986,-2.8057 0.66511,-6.3684 -2.14062,-7.9882 L 202.80664,858.27148 c -0.87679,-0.50622 -1.82725,-0.76166 -2.76953,-0.7871 z M 923.88867,859.75 c -0.94228,0.0254 -1.89271,0.2809 -2.76953,0.78711 l -250.1543,144.42579 c -2.8058,1.6199 -3.76053,5.1825 -2.14062,7.9883 l 3.5293,6.1152 c 1.6199,2.8058 5.18254,3.7605 7.98828,2.1406 L 930.49609,876.7793 c 2.80577,-1.61994 3.76054,-5.18255 2.14063,-7.98828 l -3.5293,-6.11329 c -1.11369,-1.92897 -3.14574,-2.98372 -5.21875,-2.92773 z M 201.8418,914.04102 c -2.07301,-0.056 -4.10504,0.99879 -5.21875,2.92773 l -3.5293,6.11328 c -1.61994,2.80581 -0.66514,6.36837 2.14063,7.98828 l 198.46679,114.58589 c 2.80576,1.6199 6.37032,0.6652 7.99024,-2.1406 l 3.52929,-6.1133 c 1.61988,-2.8057 0.66515,-6.3683 -2.14062,-7.9882 L 204.61133,914.82812 c -0.8768,-0.5062 -1.82725,-0.76165 -2.76953,-0.7871 z m 720.24218,2.26562 c -0.94228,0.0254 -1.89271,0.27895 -2.76953,0.78516 L 720.8457,1031.6777 c -2.80581,1.62 -3.76052,5.1845 -2.14062,7.9903 l 3.5293,6.1132 c 1.61997,2.8058 5.18251,3.7605 7.98828,2.1407 L 928.69141,933.33594 c 2.80577,-1.6199 3.76052,-5.18255 2.14062,-7.98828 l -3.5293,-6.11524 c -1.11369,-1.92897 -3.14573,-2.98178 -5.21875,-2.92578 z m -361.68945,59.51953 c -3.23981,0 -5.84766,2.60785 -5.84765,5.84766 V 1280 h 18.75585 V 981.67383 c 0,-3.23981 -2.60784,-5.84766 -5.84765,-5.84766 z m 343.48828,3.41406 c -2.07301,-0.056 -4.10506,0.9968 -5.21875,2.92579 l -3.52929,6.11523 c -1.61993,2.80577 -0.6654,6.36837 2.14062,7.98828 l 198.46871,114.58597 c 2.4879,1.4363 5.5672,0.8439 7.3633,-1.2637 v -16.1426 L 906.6543,980.02539 c -0.87681,-0.50624 -1.82922,-0.7597 -2.77149,-0.78516 z m -680.16601,2.26563 c -0.94227,0.0254 -1.89273,0.27894 -2.76953,0.78516 L 22.478516,1096.877 c -2.80607,1.6199 -3.760495,5.1825 -2.140625,7.9882 l 3.529297,6.1153 c 1.619869,2.8058 5.184464,3.7605 7.990234,2.1406 L 230.32422,998.53516 c 2.80604,-1.6199 3.76052,-5.18252 2.14062,-7.98828 l -3.52929,-6.11524 c -1.11368,-1.929 -3.14575,-2.98179 -5.21875,-2.92578 z m 284.73242,22.50394 c -3.23985,0 -5.84766,2.6078 -5.84766,5.8476 V 1280 h 18.75586 v -270.1426 c 0,-3.2398 -2.60784,-5.8476 -5.84765,-5.8476 z m 103.89062,0 c -3.23977,0 -5.84765,2.6078 -5.84765,5.8476 V 1280 h 18.75586 v -270.1426 c 0,-3.2398 -2.60781,-5.8476 -5.84766,-5.8476 z m 241.66211,1.9453 c -2.07301,-0.056 -4.10505,0.9987 -5.21875,2.9277 l -3.52929,6.1133 c -1.61992,2.8058 -0.66519,6.3684 2.14062,7.9883 l 250.15427,144.4277 c 1.7787,1.0269 3.8593,1.0143 5.5586,0.1563 v -18.6055 L 856.77148,1006.7422 c -0.8768,-0.5062 -1.82726,-0.7617 -2.76953,-0.7871 z m -580.40429,2.2656 c -0.9423,0.026 -1.89274,0.2809 -2.76954,0.7871 L 20.673828,1153.4336 c -2.80599,1.6199 -3.760535,5.1825 -2.140625,7.9883 l 3.53125,6.1133 c 1.6199,2.8058 5.182511,3.7605 7.988281,2.1406 L 280.20703,1025.25 c 2.80607,-1.6199 3.7605,-5.1826 2.14063,-7.9883 l -3.53125,-6.1152 c -1.11366,-1.929 -3.1457,-2.9818 -5.21875,-2.9258 z m 186.22265,22.8672 c -3.23985,0 -5.84765,2.6078 -5.84765,5.8476 V 1280 h 18.75586 v -243.0645 c 0,-3.2398 -2.60785,-5.8476 -5.84766,-5.8476 z m 201.14844,0 c -3.23985,0 -5.84766,2.6078 -5.84766,5.8476 V 1280 h 18.75586 v -243.0645 c 0,-3.2398 -2.60784,-5.8476 -5.84765,-5.8476 z m 145.26953,3.4433 c -2.07302,-0.056 -4.10508,0.9968 -5.21875,2.9258 l -3.5293,6.1153 c -1.61989,2.8057 -0.66517,6.3683 2.14063,7.9882 l 297.05274,171.504 c 2.0939,1.2089 4.6088,0.9832 6.4238,-0.375 v -17.5762 L 809.00781,1035.3164 c -0.8768,-0.5062 -1.82725,-0.7597 -2.76953,-0.7852 z m -484.875,2.2637 c -0.94227,0.025 -1.89468,0.2809 -2.77148,0.7871 L 21.539062,1209.0859 c -2.806149,1.6199 -3.760494,5.1825 -2.140624,7.9883 l 3.529296,6.1153 c 1.61987,2.8058 5.182512,3.7606 7.988282,2.1406 L 327.9707,1053.8262 c 2.80603,-1.6199 3.76058,-5.1845 2.14063,-7.9903 l -3.5293,-6.1132 c -1.11372,-1.929 -3.14577,-2.9838 -5.21875,-2.9278 z m 90.38086,24.1328 c -3.2398,0 -5.84961,2.6079 -5.84961,5.8477 V 1280 h 18.75781 v -213.2246 c 0,-3.2398 -2.6098,-5.8477 -5.84961,-5.8477 z m 297.30078,0 c -3.23978,0 -5.84765,2.6079 -5.84765,5.8477 V 1280 h 18.75585 v -213.2246 c 0,-3.2398 -2.60787,-5.8477 -5.84765,-5.8477 z m 46.81446,4.4961 c -2.07302,-0.056 -4.10507,0.9988 -5.21876,2.9278 l -3.53124,6.1132 c -1.61991,2.8058 -0.66519,6.3704 2.14062,7.9903 L 1091.4121,1280 h 11.6953 v -14.9023 L 758.62891,1066.2109 c -0.8768,-0.5062 -1.82726,-0.7616 -2.76953,-0.7871 z m -384.11719,2.2657 c -0.94227,0.025 -1.89274,0.2808 -2.76953,0.7871 L 23.103516,1268.1641 c -2.80581,1.62 -3.760535,5.1824 -2.140625,7.9882 L 23.185547,1280 H 40.113281 L 378.34961,1084.7188 c 2.80577,-1.62 3.76049,-5.1826 2.14062,-7.9883 l -3.52929,-6.1133 c -1.11366,-1.929 -3.14575,-2.9837 -5.21875,-2.9277 z M 0,1093.4473 v 16.1445 c 0.22956,-0.2694 0.44143,-0.559 0.625,-0.877 l 3.53125,-6.1152 c 1.62002,-2.8058 0.665525,-6.3684 -2.140625,-7.9883 z m 754.29297,31.0547 c -2.07301,-0.056 -4.10506,0.9987 -5.21875,2.9277 l -3.5293,6.1133 c -1.61991,2.8057 -0.6671,6.3684 2.13867,7.9882 L 987.51953,1280 h 37.51167 L 757.0625,1125.2891 c -0.8768,-0.5063 -1.82725,-0.7617 -2.76953,-0.7871 z m -380.98633,2.2656 c -0.94228,0.026 -1.89272,0.2789 -2.76953,0.7851 L 106.49414,1280 h 37.50977 l 235.91211,-136.2031 c 2.80577,-1.6199 3.76053,-5.1826 2.14062,-7.9883 l -3.53125,-6.1152 c -1.11369,-1.929 -3.14571,-2.9818 -5.21875,-2.9258 z M 0,1148.9629 v 18.6055 c 0.98135999,-0.4955 1.8366675,-1.2698 2.4296875,-2.2969 l 3.53125,-6.1153 c 1.61998,-2.8057 0.665485,-6.3683 -2.140625,-7.9882 z m 753.42773,31.1914 c -2.07302,-0.056 -4.10506,0.9988 -5.21875,2.9277 l -3.52929,6.1133 c -1.61991,2.8058 -0.66515,6.3685 2.14062,7.9883 L 890.26172,1280 h 37.51172 l -171.57617,-99.0586 c -0.8768,-0.5062 -1.82726,-0.7617 -2.76954,-0.7871 z m -379.25585,2.2656 c -0.94228,0.025 -1.89273,0.2809 -2.76954,0.7871 L 203.75195,1280 h 37.51172 l 139.51758,-80.5508 c 2.80577,-1.62 3.75857,-5.1826 2.13867,-7.9883 l -3.5293,-6.1132 c -1.11368,-1.929 -3.14574,-2.9838 -5.21874,-2.9278 z M 0,1205.1133 v 17.5762 c 0.61753999,-0.4619 1.1551463,-1.0534 1.5664062,-1.7657 l 3.5292969,-6.1133 c 1.61998,-2.8058 0.665445,-6.3703 -2.140625,-7.9902 z m 755.23242,31.5976 c -2.07302,-0.056 -4.10506,0.9989 -5.21875,2.9278 l -3.52929,6.1133 c -1.61991,2.8058 -0.66514,6.3683 2.14062,7.9882 L 794.10742,1280 h 37.50977 l -73.61524,-42.502 c -0.8768,-0.5062 -1.82725,-0.7617 -2.76953,-0.7871 z m -382.86523,2.2657 c -0.94228,0.025 -1.8927,0.2809 -2.76953,0.7871 L 299.9043,1280 h 37.51367 l 41.55859,-23.9941 c 2.80577,-1.6199 3.76054,-5.1825 2.14063,-7.9883 l -3.53125,-6.1153 c -1.11368,-1.929 -3.14573,-2.9817 -5.21875,-2.9257 z M 0,1265.0957 V 1280 l 3.53125,-6.1133 c 1.61995,-2.8058 0.665375,-6.3684 -2.140625,-7.9883 z"
       transform="matrix(0.26458333,0,0,0.26458333,-159.63728,-24.839802)"
       id="path2719"
       inkscape:connector-curvature="0" />
  </g>
</svg>
