<?xml version="1.0" encoding="UTF-8" standalone="no"?>
<!-- Created with Inkscape (http://www.inkscape.org/) -->

<svg
   xmlns:dc="http://purl.org/dc/elements/1.1/"
   xmlns:cc="http://creativecommons.org/ns#"
   xmlns:rdf="http://www.w3.org/1999/02/22-rdf-syntax-ns#"
   xmlns:svg="http://www.w3.org/2000/svg"
   xmlns="http://www.w3.org/2000/svg"
   xmlns:sodipodi="http://sodipodi.sourceforge.net/DTD/sodipodi-0.dtd"
   xmlns:inkscape="http://www.inkscape.org/namespaces/inkscape"
   width="150.76242"
   height="107.98402"
   viewBox="0 0 39.889225 28.570772"
   version="1.1"
   id="svg5465"
   inkscape:version="0.92.4 (5da689c313, 2019-01-14)"
   sodipodi:docname="bells.svg">
  <defs
     id="defs5459" />
  <sodipodi:namedview
     id="base"
     pagecolor="#ffffff"
     bordercolor="#666666"
     borderopacity="1.0"
     inkscape:pageopacity="0.0"
     inkscape:pageshadow="2"
     inkscape:zoom="0.35"
     inkscape:cx="75.381402"
     inkscape:cy="53.992072"
     inkscape:document-units="mm"
     inkscape:current-layer="layer1"
     showgrid="false"
     fit-margin-top="0"
     fit-margin-left="0"
     fit-margin-right="0"
     fit-margin-bottom="0"
     units="px"
     inkscape:window-width="725"
     inkscape:window-height="635"
     inkscape:window-x="139"
     inkscape:window-y="256"
     inkscape:window-maximized="0" />
  <metadata
     id="metadata5462">
    <rdf:RDF>
      <cc:Work
         rdf:about="">
        <dc:format>image/svg+xml</dc:format>
        <dc:type
           rdf:resource="http://purl.org/dc/dcmitype/StillImage" />
        <dc:title></dc:title>
      </cc:Work>
    </rdf:RDF>
  </metadata>
  <g
     inkscape:label="Layer 1"
     inkscape:groupmode="layer"
     id="layer1"
     transform="translate(-72.659505,-134.54797)">
    <path
       id="path116"
       style="fill:#614244;fill-opacity:1;fill-rule:nonzero;stroke:none;stroke-width:0.03527778"
       d="m 105.60372,152.65847 c 0.87842,0.59373 1.73673,0.87454 2.86456,0.91193 l -0.0388,0.0328 c -0.0759,0.0649 -0.14676,0.1263 -0.22331,0.1778 -0.55739,0.38912 -0.92534,0.64629 -1.49613,0.96944 -1.11302,0.6283 -2.33504,1.21144 -3.63291,1.7339 -1.89371,0.76412 -3.966278,1.4097 -6.327773,1.97062 -3.44e-4,-0.001 -0.0011,-0.002 -0.0014,-0.003 -0.02152,-0.0441 -0.04233,-0.091 -0.0635,-0.13653 -0.05009,-0.10865 -0.09913,-0.21837 -0.145344,-0.33196 -0.0053,-0.013 -0.01058,-0.0243 -0.01552,-0.037 -0.07267,-0.17992 -0.131938,-0.36583 -0.183797,-0.55422 -0.0095,-0.0356 -0.0194,-0.0713 -0.02858,-0.10689 -0.04868,-0.19261 -0.0889,-0.38841 -0.115711,-0.58772 -0.05009,-0.35807 -0.05891,-0.74472 -0.04304,-1.14371 3.058582,-0.68086 6.184545,-1.8729 8.870245,-3.38279 0.18168,0.17957 0.37288,0.34678 0.58102,0.48719 z m -3.5948,5.68643 c -0.5387,0.1972 -1.17087,0.13582 -1.68134,-0.13582 1.00118,-0.31256 1.9505,-0.64841 2.85997,-1.01036 -0.22084,0.51788 -0.65405,0.95391 -1.17863,1.14618 z m -3.512964,3.24767 c 0.06526,0.0497 0.05962,0.11324 0.05045,0.14676 -0.0088,0.0325 -0.03528,0.0878 -0.113947,0.097 -0.182033,0.0219 -0.357011,0.0416 -0.490008,0.0434 l -0.211667,0.002 c -0.291042,0.004 -0.557389,0.007 -0.817386,0.007 h -3.44e-4 c -0.582083,0 -1.052689,-0.018 -1.573389,-0.0603 -1.853494,-0.15099 -3.795536,-0.44168 -5.771797,-0.86466 -0.381,-0.0815 -0.765175,-0.16969 -1.151114,-0.26141 l -0.69215,-0.1718 c -2.833549,-0.7116 -5.810676,-1.69232 -9.048929,-2.98596 -0.515514,-0.20637 -1.031311,-0.42157 -1.539664,-0.64346 -0.0659,-0.0296 -0.07236,-0.0903 -0.07031,-0.12348 0.0021,-0.0342 0.01601,-0.0949 0.08643,-0.11677 1.566686,-0.48718 3.038546,-1.54022 4.144293,-2.9658 0.01432,-0.0187 0.02688,-0.0388 0.04092,-0.0572 4.438826,1.84468 9.463828,3.05929 14.205514,3.43641 0.01129,0.0624 0.02434,0.12418 0.0374,0.18627 0.01023,0.0462 0.02081,0.0928 0.0321,0.13934 0.02293,0.0942 0.04833,0.18768 0.07585,0.28081 0.0127,0.0441 0.0254,0.0885 0.03951,0.13265 0.0381,0.11853 0.07937,0.23601 0.125236,0.35207 0.0056,0.0148 0.0099,0.03 0.01587,0.0448 0.02187,0.054 0.04621,0.10372 0.06844,0.15664 0.04127,0.096 0.0822,0.19367 0.124177,0.28363 0.04198,0.0896 0.08678,0.17639 0.131234,0.26317 0.0187,0.037 0.03704,0.0773 0.05644,0.1136 l 0.07479,0.1397 c 0.0049,0.01 0.0099,0.0194 0.01517,0.0286 l 0.03775,0.0706 0.0046,-0.001 c 0.512586,0.88476 1.1811,1.61678 2.11455,2.32692 z m -10.236906,-0.20179 1.23437,0.30621 c -0.04233,0.0339 -0.08467,0.0677 -0.128764,0.0998 -0.04163,0.0296 -0.08149,0.0607 -0.124531,0.0885 -0.06738,0.0434 -0.138288,0.0808 -0.208844,0.11924 -0.143933,0.0776 -0.292806,0.14782 -0.447675,0.20391 -0.01058,0.004 -0.02011,0.008 -0.03034,0.012 -0.08996,0.0318 -0.182033,0.0561 -0.274461,0.0797 -0.03457,0.009 -0.06844,0.0194 -0.103364,0.0268 -0.08608,0.0194 -0.173214,0.0339 -0.26035,0.0462 -0.04621,0.006 -0.09278,0.0124 -0.138994,0.0169 -0.07832,0.008 -0.156634,0.0127 -0.234527,0.0148 -0.06629,0.001 -0.132292,-8e-4 -0.198437,-0.004 -0.06078,-0.002 -0.121956,-0.003 -0.182316,-0.01 -0.129681,-0.0138 -0.258657,-0.0332 -0.385022,-0.0646 -0.129398,-0.0321 -0.255905,-0.0759 -0.3798,-0.12594 -0.04025,-0.0162 -0.07881,-0.0363 -0.118498,-0.0547 -0.08283,-0.0377 -0.164677,-0.0776 -0.244052,-0.12312 -0.04343,-0.0247 -0.08573,-0.0515 -0.128023,-0.0783 -0.0732,-0.0462 -0.144286,-0.0956 -0.213748,-0.14817 -0.03997,-0.0303 -0.07994,-0.0603 -0.118498,-0.0924 -0.07168,-0.0593 -0.139453,-0.12277 -0.206022,-0.18803 -0.03034,-0.0296 -0.06202,-0.0579 -0.09123,-0.0885 -0.09204,-0.0981 -0.179423,-0.20038 -0.258939,-0.30868 -0.01005,-0.0134 -0.01792,-0.0286 -0.02769,-0.0423 -0.06847,-0.0963 -0.131727,-0.19579 -0.189053,-0.29845 -0.02166,-0.0392 -0.03997,-0.0797 -0.05997,-0.11959 -0.02618,-0.0522 -0.04889,-0.10548 -0.07221,-0.15911 l 2.86773,0.71156 c 0.241724,0.0607 0.483729,0.12277 0.723265,0.17956 z m -4.439178,-13.716 c 0.06025,-0.30409 0.116169,-0.61383 0.172825,-0.92569 0.353448,-1.95086 0.719067,-3.96875 2.149863,-5.16113 0.923149,-0.76977 2.289704,-1.19345 3.847571,-1.19345 0.572911,0 1.173339,0.0631 1.773414,0.18168 0.0032,0.003 0.0056,0.006 0.0085,0.01 -0.231422,0.25223 -0.555272,0.42757 -0.827263,0.5394 -0.2032,0.0832 -0.412398,0.15169 -0.633942,0.22366 -0.336903,0.11042 -0.685095,0.22401 -1.017411,0.39617 -0.705908,0.36618 -1.16205,0.95779 -1.219553,1.58362 -0.02328,0.24941 0.01446,0.48365 0.05115,0.71014 0.04304,0.26881 0.08043,0.50094 0.0046,0.68439 -0.08537,0.20637 -0.32138,0.35948 -0.570935,0.52175 l -0.147744,0.0967 0.393771,0.58597 0.137936,-0.091 c 0.313972,-0.20355 0.669572,-0.43427 0.838906,-0.84385 0.1524,-0.36794 0.09243,-0.73871 0.03986,-1.06574 -0.03069,-0.19191 -0.05997,-0.37324 -0.04516,-0.5334 0.03563,-0.38523 0.350308,-0.76729 0.84208,-1.02199 0.281164,-0.14605 0.587375,-0.24624 0.911578,-0.35172 0.224014,-0.073 0.455436,-0.14888 0.682625,-0.24166 0.352072,-0.14464 0.648406,-0.32385 0.887236,-0.52987 0.04586,0.22931 0.03845,0.46814 -0.0381,0.68545 -0.07232,0.20496 -0.197908,0.40463 -0.331258,0.6156 -0.2159,0.34184 -0.460728,0.73025 -0.485775,1.20191 -0.02152,0.39934 0.121708,0.75918 0.24765,1.07668 0.06244,0.15698 0.121356,0.3048 0.159808,0.45049 0.09666,0.36407 0.07197,0.75671 -0.06879,1.10632 l 0.65405,0.26423 c 0.197908,-0.49001 0.232127,-1.04105 0.09701,-1.55152 -0.04974,-0.18627 -0.118887,-0.36089 -0.186267,-0.52987 -0.109008,-0.27446 -0.21202,-0.53411 -0.198967,-0.77858 0.01517,-0.28858 0.191559,-0.56762 0.377825,-0.86325 0.148167,-0.2346 0.301272,-0.47766 0.40005,-0.75706 0.155575,-0.44062 0.135467,-0.92534 -0.02117,-1.36102 1.605491,0.48542 3.099505,1.39347 3.931708,2.68535 l 0.09207,0.15839 -0.0039,0.0194 0.01376,-0.003 0.0018,0.003 c 0.02399,0.0413 0.04692,0.0836 0.0695,0.12558 0.04516,0.0811 0.08855,0.1644 0.128411,0.25083 0.04692,0.10195 0.08855,0.20708 0.127352,0.31327 0.01199,0.0339 0.02716,0.0649 0.03845,0.0991 0.693561,2.07257 0.02611,4.24673 -0.680155,6.54826 -0.104775,0.34113 -0.209903,0.68897 -0.312209,1.03752 -0.05221,0.17991 -0.103363,0.35983 -0.152752,0.5401 -0.01764,0.0649 -0.0381,0.13017 -0.05503,0.19473 l -0.0095,0.0385 c -0.01129,0.043 -0.01976,0.0815 -0.03069,0.12383 -0.02963,0.11465 -0.05891,0.2293 -0.08643,0.34396 -4.291549,-0.62089 -8.537018,-1.66617 -12.625641,-3.10974 0.26677,-0.76976 0.489479,-1.6002 0.66735,-2.5019 z m 5.741281,-9.26959 c -0.456494,-0.27128 -1.525058,-1.01882 -1.588205,-2.1029 -0.02081,-0.35525 0.111477,-0.81492 0.451555,-0.98425 0.09525,-0.0473 0.197909,-0.0706 0.312914,-0.0706 0.298803,0 0.671689,0.16616 0.997303,0.4445 1.032933,0.88159 1.493661,2.19957 1.85173,3.72957 -0.289983,-0.15452 -0.585611,-0.29387 -0.875947,-0.43039 -0.403578,-0.1898 -0.78493,-0.36901 -1.14935,-0.58597 z m 3.847395,1.18745 c 0.09102,-0.10689 0.1651,-0.19508 0.208491,-0.23847 0.373592,-0.37218 0.797278,-0.79481 1.249539,-1.14935 0.207433,-0.16299 0.593372,-0.35807 1.007533,-0.50977 0.824089,-0.30162 1.592087,-0.3429 1.744487,-0.11924 0.08361,0.12277 0.05362,0.39194 -0.08255,0.73872 -0.360187,0.91652 -1.3843,1.40829 -2.222148,1.56245 -0.357716,0.066 -0.741891,0.0963 -1.208264,0.0963 -0.329141,0 -0.667808,-0.0155 -0.999419,-0.0328 0.09207,-0.10266 0.191911,-0.21872 0.302331,-0.34784 z m 6.312958,0.6731 c 0.130879,-0.0741 0.263877,-0.11853 0.356304,-0.11853 0.0215,0 0.049,0.002 0.0593,0.0138 0.013,0.0152 0.036,0.10336 -0.0303,0.30515 -0.195088,0.59408 -0.605015,1.15253 -1.153937,1.57198 -0.365125,0.27869 -0.787753,0.50024 -1.261533,0.66216 0.362303,-1.01564 1.0922,-1.90006 2.030236,-2.43452 z m -3.181703,12.88627 c 2.494845,-0.71649 4.946647,-1.64888 7.297207,-2.77354 0.19685,0.44556 0.4258,0.86819 0.70908,1.24954 -2.53647,1.40829 -5.461348,2.52659 -8.338251,3.18841 0.06279,-0.49601 0.172861,-1.04211 0.331964,-1.66441 z m -0.945797,1.01106 c -0.02893,0.16369 -0.05468,0.32738 -0.07655,0.49107 -0.0088,0.0681 -0.01517,0.1337 -0.02293,0.20073 -0.01164,0.10442 -0.02293,0.20849 -0.0314,0.31291 -0.0021,0.0258 -0.006,0.0533 -0.0078,0.079 -0.0049,0.0617 -0.006,0.12171 -0.0092,0.18274 -0.0028,0.0508 -0.0056,0.10125 -0.0074,0.1517 -0.0035,0.10371 -0.0039,0.20602 -0.0032,0.30762 3.44e-4,0.0409 -7.14e-4,0.0815 0,0.12241 0.0025,0.11783 0.0088,0.23354 0.01693,0.34819 -4.573764,-0.37994 -9.404914,-1.54763 -13.693916,-3.31117 0.440831,-0.66498 0.820067,-1.40194 1.144729,-2.21121 4.121573,1.45627 8.400521,2.51143 12.726634,3.14043 -0.01164,0.0614 -0.02505,0.12523 -0.03598,0.18556 z m 7.498644,-5.90867 c 0.14958,0.49071 0.30198,0.98742 0.47872,1.46932 -2.1971,1.05374 -4.483806,1.93569 -6.812139,2.62819 0.01764,-0.0607 0.03387,-0.121 0.05186,-0.18168 0.04727,-0.16016 0.09525,-0.32032 0.144286,-0.48154 0.0056,-0.0191 0.01129,-0.0381 0.01728,-0.0572 0.04198,-0.13794 0.08431,-0.27623 0.127,-0.41522 0.708378,-2.30752 1.440745,-4.69371 0.675922,-6.98077 -0.01446,-0.0423 -0.03493,-0.0822 -0.05009,-0.12418 -0.03951,-0.10759 -0.07796,-0.2159 -0.124178,-0.31785 0.422275,-0.0977 0.839611,-0.14711 1.2446,-0.14711 0.850196,0 1.589969,0.22296 2.138889,0.64382 1.17158,0.89888 1.62631,2.3876 2.10785,3.96417 z m -1.67817,-4.52403 c -0.67098,-0.51399 -1.554332,-0.78634 -2.555163,-0.78881 0.182386,-0.10512 0.357716,-0.21766 0.521758,-0.3429 0.661105,-0.50482 1.156755,-1.18427 1.396295,-1.9124 0.17074,-0.5207 0.0342,-0.82621 -0.11007,-0.99096 -0.14605,-0.16616 -0.34995,-0.25364 -0.58949,-0.25364 -0.291042,0 -0.56656,0.13229 -0.705202,0.21096 -1.160285,0.66075 -2.040466,1.78717 -2.423935,3.06493 -0.673806,-0.86078 -1.614664,-1.54234 -2.66312,-2.04188 0.430389,-0.007 0.804333,-0.0399 1.156053,-0.10477 1.326797,-0.24448 2.355144,-0.99166 2.750961,-1.99849 0.232833,-0.59231 0.235656,-1.06151 0.0092,-1.39418 -0.142169,-0.20814 -0.443442,-0.45614 -1.074208,-0.45614 -0.417336,0 -0.94862,0.11007 -1.495778,0.31045 -0.486128,0.1778 -0.935214,0.40887 -1.200856,0.61736 -0.484716,0.37994 -0.924277,0.81809 -1.31198,1.20473 -0.05151,0.0512 -0.140053,0.15417 -0.248003,0.28081 -0.104069,0.12242 -0.318205,0.3736 -0.498828,0.5588 -0.322465,-1.49225 -0.808946,-3.36902 -2.179135,-4.53919 -0.673805,-0.57503 -1.486605,-0.76482 -2.082447,-0.46884 -0.630308,0.31362 -0.877253,1.05798 -0.842257,1.65735 0.05846,1.00083 0.762882,1.97379 1.93234,2.66841 0.3937,0.23389 0.808567,0.42898 1.209675,0.61772 0.05609,0.0264 0.11042,0.0526 0.165806,0.0787 -0.197556,-0.0131 -0.393347,-0.0194 -0.585964,-0.0194 -1.722614,0 -3.249613,0.4819 -4.299126,1.35679 -1.627752,1.35678 -2.016654,3.50237 -2.392716,5.57706 -0.05581,0.30868 -0.111195,0.61454 -0.170462,0.91581 -0.470712,2.3869 -1.252079,4.25944 -2.388835,5.72453 -1.01794,1.31198 -2.366221,2.28 -3.796347,2.7245 -0.331823,0.10301 -0.560176,0.39687 -0.581237,0.74789 -0.02109,0.35031 0.169616,0.66781 0.498687,0.81562 0.508494,0.2219 1.031346,0.44027 1.553739,0.64946 1.878012,0.75001 3.667936,1.39383 5.396689,1.94557 0.311009,1.37795 1.422964,2.52519 2.795481,2.86562 0.141923,0.0353 0.287055,0.0617 0.433952,0.0794 0.149507,0.0183 0.299861,0.0275 0.450074,0.0275 0.427532,0 0.85404,-0.073 1.258323,-0.21061 0.0014,-2.7e-4 0.0025,-0.001 0.0039,-0.001 0.131586,-0.0452 0.261408,-0.0967 0.387703,-0.15558 0.03281,-0.0148 0.06315,-0.0342 0.0949,-0.0501 0.09384,-0.0469 0.18803,-0.0935 0.277636,-0.14746 0.04516,-0.0275 0.08714,-0.06 0.131233,-0.0889 0.07302,-0.0487 0.147814,-0.0949 0.217311,-0.14852 0.05574,-0.0427 0.106892,-0.0914 0.160161,-0.13688 0.05327,-0.0459 0.109009,-0.0885 0.159809,-0.13758 0.06562,-0.0628 0.12453,-0.13229 0.185208,-0.19967 1.679222,0.32526 3.329869,0.56092 4.915958,0.69003 0.541161,0.0437 1.0287,0.0628 1.630892,0.0628 h 3.44e-4 c 0.262819,0 0.531988,-0.003 0.826205,-0.007 l 0.211667,-0.002 c 0.167569,-0.002 0.363008,-0.024 0.564444,-0.048 0.341842,-0.0409 0.62124,-0.28116 0.711553,-0.61277 0.09066,-0.33302 -0.02858,-0.68368 -0.304094,-0.89323 -0.7874,-0.59938 -1.366309,-1.21497 -1.818923,-1.93781 0.822325,-0.19826 1.611842,-0.4064 2.36996,-0.62689 0.506942,0.45367 1.179689,0.70132 1.855969,0.70132 0.3122,0 0.62512,-0.0526 0.9211,-0.16086 0.91934,-0.3362 1.60443,-1.18781 1.76036,-2.15018 1.07668,-0.46038 2.10079,-0.95885 3.04588,-1.49225 0.60008,-0.33973 0.99942,-0.61913 1.55117,-1.00436 0.0864,-0.0579 0.17991,-0.13617 0.27834,-0.22014 l 0.0392,-0.0328 c 0.21484,-0.1845 0.29562,-0.47625 0.20567,-0.74365 -0.091,-0.26882 -0.33373,-0.45367 -0.61913,-0.47025 -0.99624,-0.0572 -1.74801,-0.30198 -2.51424,-0.81951 -0.23672,-0.15981 -0.45544,-0.35207 -0.65123,-0.57397 -0.79728,-0.889 -1.17757,-2.13395 -1.57974,-3.45157 -0.49286,-1.61322 -1.00227,-3.28186 -2.35305,-4.31797"
       inkscape:connector-curvature="0" />
    <path
       id="path118"
       style="fill:#614244;fill-opacity:1;fill-rule:nonzero;stroke:none;stroke-width:0.03527778"
       d="m 110.09035,151.87707 c -0.39617,-0.20814 -0.83397,-0.27693 -1.21991,-0.33761 l -0.10971,0.69674 c 0.34819,0.0547 0.70838,0.11183 1.00154,0.26564 0.2166,0.1136 0.4579,0.33267 0.48683,0.60748 0.0229,0.21626 -0.0815,0.47132 -0.32879,0.80257 -0.3616,0.48507 -0.79516,0.907 -1.28905,1.25448 l 0.40675,0.57679 c 0.55422,-0.39052 1.0414,-0.86466 1.44745,-1.40899 0.22684,-0.30374 0.52141,-0.7687 0.46531,-1.29928 -0.0497,-0.46814 -0.37112,-0.90135 -0.86042,-1.15782"
       inkscape:connector-curvature="0" />
    <path
       id="path120"
       style="fill:#614244;fill-opacity:1;fill-rule:nonzero;stroke:none;stroke-width:0.03527778"
       d="m 111.20477,151.21702 0.037,0.7045 c 0.2092,-0.012 0.43392,0.15452 0.53164,0.38418 0.0988,0.23248 0.0935,0.53481 -0.0152,0.85125 -0.10901,0.3175 -0.30586,0.62089 -0.49601,0.91405 l 0.59197,0.38417 c 0.20355,-0.31397 0.43426,-0.66957 0.5715,-1.06927 0.1651,-0.48119 0.16404,-0.96273 -0.003,-1.35608 -0.21485,-0.50517 -0.71438,-0.84419 -1.21815,-0.8128"
       inkscape:connector-curvature="0" />
    <path
       id="path122"
       style="fill:#614244;fill-opacity:1;fill-rule:nonzero;stroke:none;stroke-width:0.03527778"
       d="m 75.574679,155.62357 c 0.226271,-0.21202 0.562504,-0.31679 0.88773,-0.4191 l 1.976508,-0.61912 -0.21082,-0.67346 -1.976544,0.61948 c -0.363255,0.11395 -0.815234,0.25541 -1.15891,0.57715 -0.435751,0.40745 -0.572594,0.97437 -0.610482,1.37795 -0.09825,1.04704 0.341877,2.1156 1.149138,2.78941 l 0.452015,-0.54187 c -0.62163,-0.51858 -0.974408,-1.37512 -0.898631,-2.18122 0.0375,-0.39935 0.175965,-0.72884 0.389996,-0.92922"
       inkscape:connector-curvature="0" />
    <path
       id="path124"
       style="fill:#614244;fill-opacity:1;fill-rule:nonzero;stroke:none;stroke-width:0.03527778"
       d="m 74.813596,153.99515 c 0.508494,-0.21872 1.077489,-0.33726 1.627575,-0.45191 l -0.144003,-0.69074 c -0.58413,0.12171 -1.188403,0.24765 -1.76209,0.49389 -0.670948,0.28857 -1.195458,0.70979 -1.516804,1.2185 -0.40072,0.63358 -0.471134,1.40793 -0.184114,2.02 l 0.63888,-0.29986 c -0.183162,-0.38982 -0.127635,-0.91758 0.141499,-1.34373 0.309528,-0.4893 0.822855,-0.78493 1.199057,-0.94615"
       inkscape:connector-curvature="0" />
  </g>
</svg>
