<?xml version="1.0" encoding="UTF-8" standalone="no"?>
<!-- Created with Inkscape (http://www.inkscape.org/) -->

<svg
   xmlns:dc="http://purl.org/dc/elements/1.1/"
   xmlns:cc="http://creativecommons.org/ns#"
   xmlns:rdf="http://www.w3.org/1999/02/22-rdf-syntax-ns#"
   xmlns:svg="http://www.w3.org/2000/svg"
   xmlns="http://www.w3.org/2000/svg"
   xmlns:sodipodi="http://sodipodi.sourceforge.net/DTD/sodipodi-0.dtd"
   xmlns:inkscape="http://www.inkscape.org/namespaces/inkscape"
   width="33.343544mm"
   height="22.69313mm"
   viewBox="0 0 33.343544 22.69313"
   version="1.1"
   id="svg6042"
   inkscape:version="0.92.4 (5da689c313, 2019-01-14)"
   sodipodi:docname="cutlery.svg">
  <defs
     id="defs6036" />
  <sodipodi:namedview
     id="base"
     pagecolor="#ffffff"
     bordercolor="#666666"
     borderopacity="1.0"
     inkscape:pageopacity="0.0"
     inkscape:pageshadow="2"
     inkscape:zoom="0.35"
     inkscape:cx="1175.8682"
     inkscape:cy="31.456088"
     inkscape:document-units="mm"
     inkscape:current-layer="layer1"
     showgrid="false"
     fit-margin-top="0"
     fit-margin-left="0"
     fit-margin-right="0"
     fit-margin-bottom="0"
     inkscape:window-width="1920"
     inkscape:window-height="1001"
     inkscape:window-x="-9"
     inkscape:window-y="-9"
     inkscape:window-maximized="1" />
  <metadata
     id="metadata6039">
    <rdf:RDF>
      <cc:Work
         rdf:about="">
        <dc:format>image/svg+xml</dc:format>
        <dc:type
           rdf:resource="http://purl.org/dc/dcmitype/StillImage" />
        <dc:title></dc:title>
      </cc:Work>
    </rdf:RDF>
  </metadata>
  <g
     inkscape:label="Layer 1"
     inkscape:groupmode="layer"
     id="layer1"
     transform="translate(218.51096,-134.46296)">
    <path
       id="path108"
       style="fill:#614244;fill-opacity:1;fill-rule:nonzero;stroke:none;stroke-width:0.03527778"
       d="m -207.02035,144.0892 c 0.72919,-1.31868 2.39218,-2.10608 4.44853,-2.10608 1.12254,0 2.21756,0.24095 3.08292,0.6791 0.96414,0.48789 1.69863,1.43651 2.06798,2.67158 0.49248,1.64712 0.19474,3.31329 -0.81632,4.57059 -0.72637,0.90276 -1.74378,1.51518 -2.94252,1.77095 -0.4445,0.0949 -0.90699,0.14287 -1.37407,0.14287 0,0 0,0 -2.7e-4,0 -1.8549,0 -4.30212,-0.8442 -5.09376,-3.22262 -0.4452,-1.33774 -0.21625,-2.98027 0.6276,-4.50639 z m 4.46617,8.43457 c 2.6e-4,0 2.6e-4,0 2.6e-4,0 0.51682,0 1.02835,-0.0533 1.52153,-0.1584 1.3589,-0.28998 2.51566,-0.98813 3.34469,-2.01895 1.15887,-1.44109 1.50248,-3.34151 0.94262,-5.21476 -0.42545,-1.4224 -1.28658,-2.52307 -2.4257,-3.0988 -0.96203,-0.48719 -2.16994,-0.7553 -3.40113,-0.7553 -2.31669,0 -4.2104,0.92358 -5.06589,2.47015 -0.93945,1.69828 -1.1871,3.54648 -0.68016,5.07048 0.74966,2.25107 3.01167,3.70558 5.76369,3.70558"
       inkscape:connector-curvature="0" />
    <path
       id="path110"
       style="fill:#614244;fill-opacity:1;fill-rule:nonzero;stroke:none;stroke-width:0.03527778"
       d="m -211.95042,145.26678 c 0.71014,-3.74756 3.17712,-6.70419 6.43819,-7.71702 0.91581,-0.28469 1.89583,-0.42862 2.91148,-0.42862 4.1155,0 9.03252,2.54282 10.03864,7.25522 0.17639,0.82727 0.23495,1.69863 0.17498,2.5901 -0.18979,2.80811 -1.52012,5.49451 -3.55847,7.18608 -1.78541,1.48202 -4.12891,2.298 -6.59941,2.298 -2.38549,0 -4.6602,-0.76976 -6.40539,-2.16818 -2.55905,-2.0514 -3.68053,-5.42184 -3.00002,-9.01558 z m 2.55905,9.56592 c 1.86937,1.49824 4.30107,2.32339 6.84636,2.32339 2.63454,0 5.13821,-0.87383 7.04991,-2.46027 2.18405,-1.81328 3.60892,-4.68454 3.81212,-7.68174 0.0646,-0.95673 10e-4,-1.89371 -0.18909,-2.78482 -1.08338,-5.07542 -6.33625,-7.81368 -10.72868,-7.81368 -1.08691,0 -2.13678,0.15487 -3.12067,0.46038 -3.51085,1.09043 -6.16303,4.2552 -6.92186,8.25923 -0.7306,3.85515 0.48543,7.4803 3.25191,9.69751"
       inkscape:connector-curvature="0" />
    <path
       id="path112"
       style="fill:#614244;fill-opacity:1;fill-rule:nonzero;stroke:none;stroke-width:0.03527778"
       d="m -217.65096,137.43052 c 0.24095,-0.97684 0.68333,-1.62031 1.3141,-1.9117 0.0963,-0.0445 0.20073,-0.0825 0.30974,-0.11289 0.0688,-0.0191 0.13688,-0.0289 0.20144,-0.0289 0.63006,0 1.14264,0.97579 1.39029,1.81152 0.145,0.48824 0.21449,0.99659 0.20638,1.51094 -0.006,0.34678 -0.0469,0.6911 -0.12312,1.02412 -0.10336,0.45155 -0.27834,0.88088 -0.46355,1.33526 -0.17321,0.42475 -0.35207,0.86395 -0.4699,1.32786 -0.50589,1.98755 -0.34714,5.75945 -0.23142,8.51358 0.0275,0.66005 0.0529,1.25519 0.0645,1.74131 0.004,0.14923 0.01,0.30128 0.0162,0.45438 0.0233,0.5835 0.0473,1.18639 -0.0695,1.71873 -0.085,0.38735 -0.39335,0.6784 -0.5514,0.6784 -0.0716,0 -0.15063,-0.14006 -0.19614,-0.34925 -0.048,-0.22014 -0.0353,-0.47696 -0.0229,-0.72531 0.0762,-1.53212 0.25612,-6.02827 0.25894,-7.78334 0.001,-0.97755 -0.0822,-1.96144 -0.24906,-2.92453 -0.0254,-0.14675 -0.048,-0.2921 -0.0699,-0.43674 -0.1076,-0.70097 -0.21907,-1.42522 -0.65158,-2.09162 -0.79622,-1.2259 -1.00048,-2.38301 -0.66322,-3.75179 z m 0.61737,5.95066 c 0.0229,0.14887 0.0459,0.2988 0.072,0.44979 0.16016,0.92287 0.24024,1.86619 0.23883,2.80317 -0.003,1.61396 -0.17109,5.99616 -0.25823,7.74982 -0.0138,0.28046 -0.0293,0.59867 0.0385,0.90982 0.17745,0.81668 0.67839,0.90487 0.88547,0.90487 0.53482,0 1.09114,-0.5528 1.24037,-1.23225 0.13652,-0.6216 0.11042,-1.27071 0.0854,-1.89865 -0.006,-0.14958 -0.012,-0.29775 -0.0155,-0.44344 -0.012,-0.48966 -0.0374,-1.08867 -0.0653,-1.75366 -0.11395,-2.71039 -0.26988,-6.42267 0.21025,-8.31003 0.10619,-0.41699 0.26812,-0.81457 0.43957,-1.23543 0.18767,-0.46073 0.3817,-0.93698 0.49776,-1.44427 0.0871,-0.38065 0.13476,-0.77435 0.14111,-1.17052 0.009,-0.58596 -0.0702,-1.16558 -0.2353,-1.72261 -0.20637,-0.69639 -0.82091,-2.31634 -2.06692,-2.31634 -0.12877,0 -0.26,0.0187 -0.39088,0.055 -0.14499,0.0402 -0.28505,0.0914 -0.41592,0.15169 -0.83574,0.38594 -1.40865,1.18816 -1.70322,2.38372 -0.38276,1.55258 -0.14252,2.9203 0.75601,4.3046 0.35031,0.53904 0.4452,1.15852 0.5461,1.81469"
       inkscape:connector-curvature="0" />
    <path
       id="path114"
       style="fill:#614244;fill-opacity:1;fill-rule:nonzero;stroke:none;stroke-width:0.03527778"
       d="m -189.74588,135.54528 c 2.6e-4,-0.0346 0.001,-0.1136 0.009,-0.17816 0.0783,0.14464 0.0889,0.38524 0.0981,0.57997 l 0.12065,2.65218 c 0.008,0.15946 0.0187,0.40005 0.16722,0.59549 0.10336,0.13512 0.26035,0.20991 0.44238,0.20991 0.2854,0 0.60889,-0.1898 0.75247,-0.44133 0.16052,-0.27975 0.16934,-0.61172 0.17639,-0.85372 l 0.0744,-2.61091 c 0.007,0.0219 0.0141,0.0452 0.0212,0.0692 0.23954,0.82408 0.33549,2.14453 0.21873,3.00637 -0.0356,0.26493 0.0377,0.53728 0.19649,0.72848 0.12665,0.1524 0.29881,0.24166 0.4886,0.25153 l 0.0416,0.001 c 0.1778,0 0.3496,-0.0741 0.4833,-0.20849 0.16581,-0.16616 0.26035,-0.40746 0.25929,-0.65052 l 0.085,-3.23568 c -2.6e-4,-0.0596 -7.9e-4,-0.1524 0.0124,-0.21025 0.0113,0.007 0.0243,0.0173 0.0349,0.0328 0.10972,0.15769 0.13053,0.46072 0.14535,0.68156 0.0674,1.00612 0.15416,3.55177 -0.49142,5.45747 -0.10583,0.31221 -0.23072,0.60396 -0.36265,0.91299 -0.19721,0.46073 -0.40076,0.93663 -0.5327,1.47885 -0.35313,1.45274 -0.30586,2.95345 -0.2607,4.40478 l 0.10795,3.87209 c 0.007,0.24447 0.0222,0.49883 0.0374,0.75812 0.0469,0.78599 0.0949,1.59879 -0.0829,2.28423 -0.0744,0.28717 -0.37677,0.56903 -0.61031,0.56903 -0.12206,0 -0.22754,-0.0981 -0.31291,-0.29104 -0.0653,-0.14781 -0.084,-0.34678 -0.0991,-0.55492 -0.0702,-0.98143 -0.0169,-1.73566 0.0452,-2.60914 0.0261,-0.37148 0.0536,-0.75953 0.0734,-1.18886 0.013,-0.28293 0.0279,-0.56939 0.043,-0.85796 0.0649,-1.22872 0.13194,-2.49978 0.0473,-3.71651 -0.0727,-1.03999 -0.34995,-2.0574 -0.61736,-3.04094 -0.0833,-0.30586 -0.16581,-0.60925 -0.24095,-0.90947 -0.0663,-0.26705 -0.14005,-0.52775 -0.21273,-0.78599 -0.21342,-0.75459 -0.41486,-1.4672 -0.40534,-2.25248 z m -0.11395,7.15927 c 0.0762,0.30515 0.16016,0.61313 0.24448,0.92322 0.25858,0.95109 0.52634,1.93428 0.59407,2.90512 0.0818,1.17405 0.0162,2.42288 -0.0476,3.63044 -0.0152,0.29034 -0.0303,0.5782 -0.0434,0.8629 -0.0194,0.42262 -0.0466,0.80503 -0.0723,1.17086 -0.061,0.86325 -0.11888,1.67817 -0.0448,2.70969 0.0187,0.26176 0.0462,0.53869 0.1577,0.79022 0.27375,0.61842 0.71755,0.71085 0.95779,0.71085 0.623,0 1.1564,-0.56974 1.29328,-1.09749 0.20567,-0.79305 0.15381,-1.66229 0.10442,-2.50296 -0.0148,-0.25188 -0.0296,-0.49883 -0.0363,-0.7359 l -0.1083,-3.87455 c -0.0437,-1.40441 -0.0892,-2.8568 0.24095,-4.2164 0.11818,-0.48507 0.30162,-0.9137 0.496,-1.36772 0.13159,-0.30798 0.26741,-0.62583 0.38206,-0.9645 0.68651,-2.02565 0.59725,-4.68242 0.5274,-5.73087 -0.0208,-0.30339 -0.049,-0.71896 -0.26987,-1.03646 -0.14817,-0.21379 -0.39441,-0.34643 -0.64206,-0.34643 -0.25682,0 -0.47907,0.13864 -0.59407,0.36971 -0.0981,0.19685 -0.097,0.40675 -0.0963,0.54892 l -0.085,3.23533 c 2.6e-4,0.0635 -0.0201,0.11359 -0.0384,0.14181 -0.0177,-0.0335 -0.0353,-0.0924 -0.0257,-0.16157 0.13018,-0.96061 0.0268,-2.37807 -0.24094,-3.29812 -0.121,-0.41416 -0.35278,-0.90769 -0.77117,-0.90769 -0.1016,0 -0.25294,0.031 -0.39512,0.18062 -0.20355,0.21237 -0.22824,0.50482 -0.23565,0.76235 l -0.0765,2.68393 c -0.005,0.16757 -0.0109,0.39688 -0.0829,0.52247 -0.007,0.0116 -0.0222,0.0254 -0.0399,0.0385 -0.003,-0.0335 -0.005,-0.0649 -0.005,-0.084 l -0.12065,-2.65183 c -0.012,-0.2667 -0.0286,-0.63182 -0.20778,-0.92816 -0.14253,-0.2353 -0.38841,-0.38135 -0.64206,-0.38135 -0.19897,0 -0.3817,0.0935 -0.50059,0.25647 -0.14852,0.20355 -0.16404,0.44485 -0.16686,0.67451 l -0.0476,3.95005 c -0.0106,0.88724 0.21448,1.68311 0.4318,2.45251 0.0709,0.25118 0.14252,0.50483 0.20743,0.76553"
       inkscape:connector-curvature="0" />
  </g>
</svg>
