<?xml version="1.0" encoding="UTF-8" standalone="no"?>
<!-- Created with Inkscape (http://www.inkscape.org/) -->

<svg
   xmlns:dc="http://purl.org/dc/elements/1.1/"
   xmlns:cc="http://creativecommons.org/ns#"
   xmlns:rdf="http://www.w3.org/1999/02/22-rdf-syntax-ns#"
   xmlns:svg="http://www.w3.org/2000/svg"
   xmlns="http://www.w3.org/2000/svg"
   xmlns:sodipodi="http://sodipodi.sourceforge.net/DTD/sodipodi-0.dtd"
   xmlns:inkscape="http://www.inkscape.org/namespaces/inkscape"
   width="27.872416mm"
   height="24.825029mm"
   viewBox="0 0 27.872416 24.825029"
   version="1.1"
   id="svg6619"
   inkscape:version="0.92.4 (5da689c313, 2019-01-14)"
   sodipodi:docname="drinking.svg">
  <defs
     id="defs6613" />
  <sodipodi:namedview
     id="base"
     pagecolor="#ffffff"
     bordercolor="#666666"
     borderopacity="1.0"
     inkscape:pageopacity="0.0"
     inkscape:pageshadow="2"
     inkscape:zoom="0.35"
     inkscape:cx="2.6742099"
     inkscape:cy="46.91394"
     inkscape:document-units="mm"
     inkscape:current-layer="layer1"
     showgrid="false"
     fit-margin-top="0"
     fit-margin-left="0"
     fit-margin-right="0"
     fit-margin-bottom="0"
     inkscape:window-width="1920"
     inkscape:window-height="1001"
     inkscape:window-x="-9"
     inkscape:window-y="-9"
     inkscape:window-maximized="1" />
  <metadata
     id="metadata6616">
    <rdf:RDF>
      <cc:Work
         rdf:about="">
        <dc:format>image/svg+xml</dc:format>
        <dc:type
           rdf:resource="http://purl.org/dc/dcmitype/StillImage" />
        <dc:title></dc:title>
      </cc:Work>
    </rdf:RDF>
  </metadata>
  <g
     inkscape:label="Layer 1"
     inkscape:groupmode="layer"
     id="layer1"
     transform="translate(-91.896615,-136.42095)">
    <path
       id="path82"
       style="fill:#614244;fill-opacity:1;fill-rule:nonzero;stroke:none;stroke-width:0.03527778"
       d="m 114.66169,137.37206 c 0.14005,0.41487 0.28081,0.82409 0.42051,1.22979 0.51787,1.50565 1.00965,2.94922 1.39911,4.47463 -0.31503,-0.0402 -0.60713,-0.13441 -0.86501,-0.28963 -0.12594,-0.0765 -0.24659,-0.16616 -0.36689,-0.25541 -0.30092,-0.22296 -0.64205,-0.4759 -1.07421,-0.54293 -0.69144,-0.10618 -1.23754,0.27834 -1.75401,0.647 -0.31538,0.22472 -0.61277,0.43674 -0.92639,0.52705 -0.5013,0.14323 -1.17793,-0.0766 -1.58009,-0.24765 -0.11607,-0.0487 -0.23142,-0.0995 -0.34714,-0.15064 -0.47413,-0.2092 -0.96449,-0.42545 -1.51306,-0.48154 -0.3175,-0.0328 -0.64241,0.0102 -0.93521,0.10866 -0.23284,-0.69215 -0.45615,-1.40053 -0.66358,-2.11703 1.33703,-0.45226 6.38352,-2.16817 8.20597,-2.9023 z m 0.62794,13.98764 c 0.0515,0.14182 0.10231,0.29422 0.15557,0.45226 0.32456,0.96485 0.72814,2.1657 1.63584,2.63772 0.41133,0.21378 0.96731,0.3302 1.65664,0.34784 -0.14041,0.0635 -0.26811,0.11748 -0.3683,0.1584 -1.12078,0.45932 -2.71286,1.07068 -4.18924,1.4926 0.45932,-0.36901 0.93663,-0.7941 1.11478,-1.38783 0.1337,-0.44591 0.12136,-0.93239 -0.0349,-1.4044 l -1.45662,-4.51838 c 0.0769,-0.0261 0.15381,-0.0522 0.23001,-0.0787 0.1263,-0.0441 0.25294,-0.0907 0.37959,-0.13794 z m 1.49119,-7.00828 c 0.0444,0.21625 0.084,0.42404 0.11254,0.62547 0.0533,0.37712 0.066,0.73061 -0.0141,1.0668 -0.002,0.0102 -0.006,0.0194 -0.009,0.0296 -0.0169,0.0656 -0.0356,0.13052 -0.0593,0.19332 -0.002,0.007 -0.007,0.0145 -0.009,0.0215 -0.0251,0.0642 -0.0522,0.12735 -0.0836,0.18838 -0.0109,0.0219 -0.0251,0.042 -0.037,0.0635 -0.0254,0.0452 -0.0497,0.0907 -0.0783,0.13405 -0.54963,0.8308 -1.69863,1.33245 -2.80176,1.71803 -0.12771,0.0444 -0.25718,0.0885 -0.387,0.13159 -0.62936,0.20743 -1.27741,0.38206 -1.88772,0.38206 -0.38699,0 -0.7246,-0.0688 -1.03293,-0.21132 -0.8763,-0.40146 -1.38606,-1.37936 -1.79493,-2.26483 -0.10618,-0.22966 -0.21201,-0.46884 -0.31749,-0.71261 -0.0515,-0.11959 -0.10266,-0.24412 -0.15381,-0.36689 -0.0533,-0.1277 -0.10689,-0.25506 -0.16016,-0.38629 -0.0557,-0.13758 -0.11113,-0.27869 -0.16616,-0.41945 -0.0508,-0.12947 -0.1016,-0.25929 -0.15205,-0.39194 -0.0519,-0.13582 -0.10301,-0.2734 -0.15416,-0.41169 -0.055,-0.14887 -0.11007,-0.29986 -0.1644,-0.45226 -0.0279,-0.0783 -0.0561,-0.15734 -0.0836,-0.23636 0.19332,-0.0642 0.41769,-0.0893 0.63605,-0.0677 0.43745,0.0448 0.8562,0.22966 1.29964,0.4251 0.1203,0.0533 0.24024,0.10619 0.35842,0.15522 0.35842,0.15276 0.90029,0.35631 1.46085,0.35631 0.20497,0 0.40288,-0.0272 0.58738,-0.0804 0.43039,-0.12348 0.79198,-0.38136 1.14159,-0.63077 0.42721,-0.30445 0.82162,-0.58738 1.23683,-0.52388 0.2593,0.0399 0.50342,0.22084 0.762,0.4124 0.13371,0.0991 0.27164,0.20144 0.42193,0.29245 0.41557,0.25048 0.88617,0.38841 1.40052,0.4124 0.042,0.1838 0.0903,0.3616 0.12877,0.54822 z m -10.29723,-1.63336 -0.002,0.001 0.0917,0.26599 c 0.0349,0.10054 0.0706,0.19579 0.10583,0.29528 0.0621,0.17638 0.12418,0.35136 0.18733,0.52458 0.0522,0.14323 0.10477,0.28434 0.15769,0.42474 0.0593,0.15734 0.11853,0.31256 0.17851,0.46637 0.0557,0.14394 0.11183,0.28717 0.16827,0.42722 0.0614,0.1531 0.12347,0.30197 0.18556,0.4512 0.0522,0.12594 0.10442,0.25365 0.15734,0.37606 0.11395,0.26564 0.2286,0.52494 0.34325,0.77435 0.001,0.002 0.002,0.005 0.003,0.007 0.34996,0.75706 0.77188,1.57444 1.43122,2.14418 0.003,0.002 0.006,0.004 0.008,0.006 0.10125,0.0871 0.20708,0.16933 0.32032,0.24342 0.11924,0.079 0.24483,0.14993 0.37818,0.21131 0.39547,0.18239 0.84208,0.27481 1.3268,0.27481 2.6e-4,0 0,0 2.6e-4,0 0.5387,0 1.07774,-0.10936 1.60409,-0.26035 l 1.45908,4.52367 c 0.11148,0.33691 0.12171,0.67663 0.0296,0.98319 -0.13441,0.44839 -0.59055,0.81034 -1.03152,1.16064 -0.0734,0.0582 -0.1457,0.11536 -0.21555,0.17251 -0.22401,0.18345 -0.28892,0.49072 -0.15804,0.74824 0.10654,0.20991 0.31679,0.33409 0.54222,0.33409 0.0526,0 0.10583,-0.007 0.15875,-0.0205 1.63124,-0.42863 3.46816,-1.13066 4.72158,-1.6443 0.19967,-0.0815 0.50129,-0.21167 0.80327,-0.3676 0.25506,-0.13158 0.38277,-0.41768 0.3108,-0.69532 -0.0713,-0.27658 -0.31891,-0.46214 -0.60643,-0.45544 -0.75988,0.0233 -1.35819,-0.0695 -1.73813,-0.26705 -0.65441,-0.34043 -1.00789,-1.39171 -1.29187,-2.23626 -0.0547,-0.16298 -0.1076,-0.31997 -0.16016,-0.46637 l -0.88654,-2.46521 c 0.79234,-0.34996 1.52577,-0.79587 2.0059,-1.42275 0.024,-0.0317 0.0452,-0.066 0.0681,-0.0984 0.031,-0.0441 0.0635,-0.0871 0.0917,-0.1323 0.049,-0.079 0.0942,-0.16086 0.13546,-0.24482 2.7e-4,-0.001 8e-4,-0.002 0.001,-0.002 0.0801,-0.16369 0.14288,-0.33867 0.18944,-0.52423 0.002,-0.008 0.005,-0.0148 0.007,-0.0226 v -2.7e-4 c 0,-2.6e-4 2.7e-4,-7.9e-4 2.7e-4,-10e-4 0.007,-0.0289 0.0106,-0.0582 0.0162,-0.0875 0.12735,-0.62512 0.0275,-1.23578 -0.10901,-1.90817 -0.0571,-0.28222 -0.12206,-0.56409 -0.18591,-0.83926 l -0.0663,-0.28403 -0.006,2.7e-4 c -0.40322,-1.62137 -0.92075,-3.13373 -1.46544,-4.71594 -0.17921,-0.52035 -0.36018,-1.04669 -0.53939,-1.58362 l -0.12277,-0.36794 -0.35454,0.15698 c -1.53,0.67733 -8.74818,3.1115 -8.82121,3.13584 l -0.31785,0.10725 0.091,0.32279 c 0.24589,0.87136 0.51505,1.73602 0.79904,2.57457"
       inkscape:connector-curvature="0" />
    <path
       id="path84"
       style="fill:#614244;fill-opacity:1;fill-rule:nonzero;stroke:none;stroke-width:0.03527778"
       d="m 94.713512,158.43784 c 0.38876,-0.25718 0.69074,-0.63889 0.873125,-1.10138 l 1.775532,-4.40302 c 0.07585,0.0293 0.151693,0.0596 0.227893,0.0882 0.123119,0.0459 0.250119,0.0921 0.378883,0.13759 l -0.888293,2.43311 c -0.05151,0.14146 -0.109715,0.29069 -0.169688,0.44555 -0.36971,0.94898 -0.829379,2.13008 -0.43462,3.07481 0.17921,0.42722 0.531283,0.87278 1.049512,1.32786 -0.147812,-0.0409 -0.280459,-0.0811 -0.384175,-0.11394 -1.153936,-0.36513 -2.768246,-0.91511 -4.173006,-1.53706 0.589137,0.009 1.227664,-0.0102 1.744837,-0.35171 z m 2.683933,-17.01659 c 1.316215,0.50905 6.290735,2.42393 8.160455,3.02754 -0.1591,0.40957 -0.31326,0.81526 -0.46637,1.21743 -0.0621,0.16263 -0.12347,0.32385 -0.18486,0.48507 -0.37535,0.0148 -0.77999,0.11042 -1.16734,0.28081 -0.10936,0.0494 -0.22013,0.1016 -0.33161,0.15452 -0.46284,0.21907 -0.94086,0.4452 -1.3776,0.4452 -0.11394,0 -0.21907,-0.0145 -0.32067,-0.0441 -0.23072,-0.0691 -0.44909,-0.22471 -0.68051,-0.38946 -0.30903,-0.22013 -0.62865,-0.44767 -1.040343,-0.52564 -0.100187,-0.0194 -0.2032,-0.0289 -0.30621,-0.0289 -0.530225,0 -0.994127,0.24836 -1.44286,0.4886 -0.388763,0.20849 -0.756005,0.40499 -1.123246,0.41945 l -0.03986,8e-4 c -0.398288,0 -0.788107,-0.20461 -1.200857,-0.42087 -0.110418,-0.0582 -0.224015,-0.11712 -0.339373,-0.17356 0.484717,-1.55681 1.125008,-3.26073 1.861256,-4.93677 z m -2.220383,6.16302 c 0.04762,-0.17709 0.10019,-0.35912 0.153107,-0.54151 0.07126,0.0367 0.143933,0.0744 0.218016,0.11324 0.4699,0.24695 0.955675,0.502 1.528234,0.502 l 0.06562,-10e-4 c 0.531283,-0.0205 0.988835,-0.26529 1.430866,-0.50235 0.451909,-0.24201 0.858309,-0.47096 1.283404,-0.38876 0.260701,0.0494 0.504821,0.22331 0.763411,0.40746 0.26776,0.19085 0.54504,0.38805 0.88935,0.49106 0.16651,0.0487 0.34149,0.0734 0.52105,0.0734 0.59514,0 1.14653,-0.2607 1.67923,-0.51329 0.10759,-0.0504 0.21413,-0.10089 0.31714,-0.14746 0.19403,-0.0854 0.39864,-0.14887 0.59549,-0.18627 -0.0152,0.0392 -0.0303,0.0794 -0.0459,0.11889 -0.10477,0.26917 -0.21237,0.54081 -0.32279,0.81456 -0.0385,0.0949 -0.0776,0.18909 -0.11642,0.28364 -0.0977,0.23812 -0.19861,0.47695 -0.30197,0.71684 -0.036,0.084 -0.0713,0.16828 -0.10831,0.25188 -0.12664,0.28787 -0.25929,0.5768 -0.39617,0.86537 -0.0497,0.10442 -0.10089,0.20919 -0.15204,0.31397 -0.12171,0.24941 -0.24801,0.49847 -0.37924,0.74683 -0.0289,0.0547 -0.0554,0.10866 -0.0847,0.16334 -0.29986,0.55739 -0.58208,1.04492 -1.00718,1.36172 -0.3743,0.27905 -0.82762,0.41487 -1.38642,0.41487 -0.819848,0 -1.715198,-0.29457 -2.48249,-0.58209 -1.07668,-0.40428 -2.156532,-0.877 -2.654655,-1.75048 -0.0254,-0.0452 -0.0568,-0.0864 -0.07902,-0.13335 -0.115005,-0.24239 -0.177095,-0.50027 -0.206022,-0.7652 -0.0762,-0.69568 0.09454,-1.44674 0.278342,-2.1269 z m -2.927702,11.65296 c 1.528234,0.71614 3.388077,1.35361 4.679596,1.76212 0.206729,0.0653 0.522113,0.1584 0.852313,0.23213 0.0448,0.01 0.0896,0.0145 0.133701,0.0145 0.232482,0 0.447324,-0.13229 0.550334,-0.34996 0.12206,-0.25823 0.05045,-0.56126 -0.174273,-0.73765 -0.596194,-0.46778 -0.998361,-0.92357 -1.163461,-1.31798 -0.285398,-0.68157 0.117475,-1.71591 0.440619,-2.5467 0.06209,-0.15946 0.122063,-0.31362 0.175331,-0.45932 l 0.897819,-2.45886 c 0.546455,0.15805 1.119013,0.2727 1.679571,0.2727 0.70697,0 1.31516,-0.18627 1.80905,-0.55386 0.13511,-0.1009 0.25647,-0.21379 0.36865,-0.33373 2.7e-4,-2.7e-4 8e-4,-8e-4 0.001,-10e-4 0.36654,-0.39194 0.6223,-0.86219 0.83785,-1.25942 0.24412,-0.45473 0.47025,-0.91087 0.68404,-1.36631 0.0127,-0.0275 0.0251,-0.055 0.0377,-0.0825 0.0889,-0.19014 0.17568,-0.38029 0.25964,-0.56973 0.0251,-0.0561 0.0494,-0.11254 0.0737,-0.16828 0.073,-0.16616 0.14428,-0.33231 0.21449,-0.49777 0.0254,-0.0603 0.0508,-0.121 0.0762,-0.18133 0.0727,-0.17427 0.14393,-0.34748 0.21378,-0.52034 0.0173,-0.0434 0.0353,-0.0871 0.0529,-0.13088 0.18345,-0.4572 0.35948,-0.90911 0.52987,-1.3529 l 0.16934,-0.44239 h -10e-4 c 0.0346,-0.0903 0.0688,-0.17956 0.10301,-0.27058 0.19614,-0.51541 0.39475,-1.03681 0.60148,-1.56527 l 0.14175,-0.36121 -0.37289,-0.10653 c -1.60866,-0.46003 -8.711137,-3.21452 -8.782752,-3.24203 l -0.312912,-0.12171 -0.13688,0.30656 c -0.791985,1.77271 -1.483428,3.59022 -2.004128,5.25004 l -0.0042,-0.002 -0.11148,0.37324 c -0.0071,0.0236 -0.01341,0.0466 -0.02045,0.0699 -0.0635,0.21202 -0.122415,0.41875 -0.179565,0.62407 -0.02434,0.0854 -0.05115,0.1725 -0.07444,0.25717 -0.19191,0.7119 -0.348191,1.44674 -0.317148,2.1523 0.01834,0.42333 0.103717,0.83573 0.28928,1.22625 0.06597,0.13829 0.143227,0.26635 0.226835,0.38876 0.472368,0.69251 1.210733,1.1423 2.015773,1.49896 l -1.778,4.40972 c -0.130175,0.32949 -0.339373,0.59725 -0.606779,0.77399 -0.390171,0.25753 -0.972254,0.24307 -1.535288,0.23037 -0.09349,-0.002 -0.185914,-0.005 -0.276225,-0.006 -0.281164,-0.004 -0.536223,0.19156 -0.600781,0.47307 -0.06456,0.28258 0.07408,0.56656 0.337256,0.69004"
       inkscape:connector-curvature="0" />
    <path
       id="path86"
       style="fill:#614244;fill-opacity:1;fill-rule:nonzero;stroke:none;stroke-width:0.03527778"
       d="m 106.36717,149.21516 -0.6992,-0.0931 -0.25153,1.88313 0.69956,0.0938 0.25117,-1.88383"
       inkscape:connector-curvature="0" />
    <path
       id="path88"
       style="fill:#614244;fill-opacity:1;fill-rule:nonzero;stroke:none;stroke-width:0.03527778"
       d="m 107.12917,148.99609 c 0.895,1.44039 1.72685,2.94358 2.47262,4.46758 l 0.63395,-0.30974 c -0.75636,-1.54552 -1.59985,-3.06987 -2.5072,-4.53037 l -0.59937,0.37253"
       inkscape:connector-curvature="0" />
    <path
       id="path90"
       style="fill:#614244;fill-opacity:1;fill-rule:nonzero;stroke:none;stroke-width:0.03527778"
       d="m 102.43935,140.64514 -1.38466,-1.36173 -0.49459,0.50306 1.3843,1.36173 0.49495,-0.50306"
       inkscape:connector-curvature="0" />
    <path
       id="path92"
       style="fill:#614244;fill-opacity:1;fill-rule:nonzero;stroke:none;stroke-width:0.03527778"
       d="m 103.97075,141.30518 0.68827,-0.15663 c -0.0653,-0.28575 -0.13088,-0.5648 -0.19614,-0.84208 -0.20426,-0.86748 -0.39723,-1.68698 -0.56339,-2.67864 l -0.69568,0.11641 c 0.16969,1.01424 0.3743,1.88348 0.57221,2.7238 0.0649,0.27587 0.13018,0.5528 0.19473,0.83714"
       inkscape:connector-curvature="0" />
  </g>
</svg>
