<?xml version="1.0" encoding="UTF-8" standalone="no"?>
<!-- Created with Inkscape (http://www.inkscape.org/) -->

<svg
   xmlns:dc="http://purl.org/dc/elements/1.1/"
   xmlns:cc="http://creativecommons.org/ns#"
   xmlns:rdf="http://www.w3.org/1999/02/22-rdf-syntax-ns#"
   xmlns:svg="http://www.w3.org/2000/svg"
   xmlns="http://www.w3.org/2000/svg"
   xmlns:sodipodi="http://sodipodi.sourceforge.net/DTD/sodipodi-0.dtd"
   xmlns:inkscape="http://www.inkscape.org/namespaces/inkscape"
   width="30.082211mm"
   height="26.676817mm"
   viewBox="0 0 30.082211 26.676817"
   version="1.1"
   id="svg7204"
   inkscape:version="0.92.4 (5da689c313, 2019-01-14)"
   sodipodi:docname="music.svg">
  <defs
     id="defs7198" />
  <sodipodi:namedview
     id="base"
     pagecolor="#ffffff"
     bordercolor="#666666"
     borderopacity="1.0"
     inkscape:pageopacity="0.0"
     inkscape:pageshadow="2"
     inkscape:zoom="0.35"
     inkscape:cx="1189.7052"
     inkscape:cy="-449.58711"
     inkscape:document-units="mm"
     inkscape:current-layer="layer1"
     showgrid="false"
     fit-margin-top="0"
     fit-margin-left="0"
     fit-margin-right="0"
     fit-margin-bottom="0"
     inkscape:window-width="1920"
     inkscape:window-height="1001"
     inkscape:window-x="-9"
     inkscape:window-y="-9"
     inkscape:window-maximized="1" />
  <metadata
     id="metadata7201">
    <rdf:RDF>
      <cc:Work
         rdf:about="">
        <dc:format>image/svg+xml</dc:format>
        <dc:type
           rdf:resource="http://purl.org/dc/dcmitype/StillImage" />
        <dc:title></dc:title>
      </cc:Work>
    </rdf:RDF>
  </metadata>
  <g
     inkscape:label="Layer 1"
     inkscape:groupmode="layer"
     id="layer1"
     transform="translate(222.17199,-3.2032597)">
    <path
       id="path258"
       style="fill:#614244;fill-opacity:1;fill-rule:nonzero;stroke:none;stroke-width:0.03527778"
       d="m -193.96035,24.522679 c -0.33655,0.525991 -0.84031,1.002596 -1.58468,1.499306 -0.41592,0.277635 -0.871,0.535165 -1.38041,0.540808 l -0.0127,0.352777 v -0.352777 c -0.43674,0 -1.01636,-0.255058 -1.23085,-0.728133 -0.11535,-0.254 -0.11571,-0.558448 -0.001,-0.835025 0.11713,-0.282575 0.33197,-0.513292 0.54716,-0.720725 1.01953,-0.984602 2.31952,-1.675342 3.75955,-1.997781 0.0642,-0.01447 0.12559,-0.02188 0.17851,-0.02188 0.0268,0 0.11712,0.0024 0.1397,0.03669 0.0148,0.02222 0.0265,0.08749 0.031,0.111831 0.12735,0.715082 -0.0307,1.466144 -0.44591,2.114902 z m -2.15723,-8.943975 -10.30323,2.6289 c 0.0723,-1.773767 0.16686,-3.541184 0.29351,-5.292019 0.0758,-0.01871 0.16828,-0.03563 0.22401,-0.04586 0.0917,-0.01693 0.17287,-0.03281 0.22614,-0.04833 4.11197,-1.210027 8.41551,-2.04964 12.79736,-2.497667 -0.0628,0.75565 -0.0758,1.497542 -0.0885,2.218973 -0.0138,0.758119 -0.0279,1.539876 -0.0998,2.324805 -0.9712,0.178858 -2.1149,0.471664 -3.04941,0.7112 z m -11.64626,11.555237 c -0.3369,0.526344 -0.84031,1.002594 -1.58467,1.499304 -0.41628,0.277638 -0.87172,0.535165 -1.38078,0.540809 l -0.0127,0.353131 v -0.352777 c -0.43673,-2.64e-4 -1.01635,-0.255413 -1.23084,-0.728133 -0.11536,-0.254355 -0.11571,-0.5588 -0.001,-0.83538 0.11713,-0.28222 0.33232,-0.513291 0.54716,-0.720725 1.01953,-0.984602 2.31952,-1.675341 3.75955,-1.997779 0.0642,-0.01447 0.12559,-0.02188 0.17851,-0.02188 0.0272,0 0.11677,0.0024 0.14041,0.03775 0.0141,0.02151 0.0261,0.08643 0.0303,0.110771 0.1277,0.715433 -0.0307,1.466146 -0.44556,2.114904 z m 15.67392,-17.5965563 -0.43145,0.041627 c -4.57376,0.4406213 -9.06709,1.3035143 -13.35475,2.5654003 -0.0363,0.01058 -0.0921,0.01976 -0.15452,0.0314 -0.3235,0.05927 -0.56338,0.114651 -0.7052,0.282926 l -0.0751,0.0889 -0.007,0.116417 c 0,0 -0.0332,0.526698 -0.054,0.757063 -0.13335,1.455561 -0.17992,2.676171 -0.22931,3.968396 -0.0155,0.4064 -0.0314,0.823738 -0.0505,1.263298 l -0.0208,0.47484 0.005,-0.0013 c -0.0589,1.685925 -0.0868,3.376438 -0.0963,5.066242 -0.16615,-0.03563 -0.35454,-0.03422 -0.55774,0.01164 -1.56633,0.350663 -2.98274,1.104196 -4.0954,2.178405 -0.25682,0.248354 -0.54186,0.555977 -0.70873,0.958495 -0.18908,0.456142 -0.18521,0.9652 0.0106,1.396648 0.35595,0.784577 1.22061,1.141942 1.87289,1.142294 l 0.0205,-2.65e-4 c 0.69533,-0.0074 1.28235,-0.337608 1.76495,-0.659693 0.82797,-0.55245 1.39594,-1.094672 1.78718,-1.705682 0.32208,-0.50306 0.51752,-1.05904 0.5789,-1.62419 h 0.0229 c -0.01,-2.314575 0.0307,-4.635145 0.11466,-6.945841 l 10.51066,-2.682169 c 0.91017,-0.233185 2.01965,-0.516466 2.95733,-0.691443 l -0.38452,6.033558 c -0.18592,-0.05962 -0.40711,-0.06562 -0.64841,-0.01164 -1.56633,0.350661 -2.98238,1.104194 -4.09504,2.178754 -0.25718,0.248005 -0.54222,0.555625 -0.70873,0.958146 -0.18909,0.456142 -0.18556,0.9652 0.0106,1.396646 0.35595,0.784931 1.22026,1.142296 1.87289,1.142296 h 0.0205 c 0.69568,-0.0078 1.28235,-0.337608 1.7646,-0.659342 0.82832,-0.552804 1.39629,-1.094671 1.78752,-1.706033 0.33056,-0.516821 0.52635,-1.089025 0.58138,-1.669698 l 0.018,0.0013 0.53093,-8.334375 c 0.0504,-0.791985 0.10301,-1.611135 0.12065,-2.434871 0.0162,-0.746831 -0.002,-1.505656 -0.0427,-2.262365 0.007,-0.07797 0.012,-0.156281 0.0204,-0.2342432 l 0.0473,-0.4314481"
       inkscape:connector-curvature="0" />
    <path
       id="path260"
       style="fill:#614244;fill-opacity:1;fill-rule:nonzero;stroke:none;stroke-width:0.03527778"
       d="m -216.55365,20.057925 -0.008,0.352777 v -0.352777 c -0.28257,0 -0.65299,-0.17145 -0.78316,-0.458259 -0.0706,-0.155223 -0.0702,-0.342548 2.6e-4,-0.513291 0.0765,-0.183798 0.22119,-0.338667 0.36619,-0.478721 0.7119,-0.687563 1.6203,-1.170163 2.62678,-1.395588 0.0384,-0.0085 0.0748,-0.01304 0.10477,-0.01304 0.007,0 0.0124,0 0.0173,2.65e-4 0.001,0.006 0.002,0.01304 0.004,0.02151 0.0864,0.483658 -0.0208,0.992364 -0.30268,1.432277 -0.23143,0.36195 -0.58068,0.691446 -1.09855,1.036814 -0.28293,0.18909 -0.59091,0.364419 -0.92675,0.367948 z m 3.64631,-11.8589801 c 0.88442,-0.7464769 2.08139,-0.9013454 3.28437,-0.4243916 0.25999,0.1030128 0.50906,0.238125 0.77293,0.381 0.38206,0.2067295 0.77717,0.4205128 1.22273,0.5404564 0.47766,0.1284102 0.99166,0.1435814 1.536,0.044802 -0.38771,0.2751667 -0.78599,0.5185833 -1.15606,0.7394231 -0.49001,0.2921 -0.97296,0.5679732 -1.49119,0.7313082 -0.59196,0.186619 -1.26612,0.242007 -2.12266,0.174273 -0.0945,-0.0074 -0.18874,-0.01587 -0.28293,-0.02469 -0.38171,-0.03492 -0.77505,-0.07091 -1.17899,-0.02963 -0.4064,0.04163 -0.71225,0.164042 -0.98495,0.335846 0.0392,-0.7122579 0.084,-1.4216958 0.13547,-2.1276042 0.10266,-0.1915583 0.18485,-0.2726954 0.26528,-0.3407833 z m -1.02658,10.8345131 c 0.23989,-0.375004 0.38453,-0.789517 0.42827,-1.211088 h 0.0159 c -0.008,-2.078918 0.0413,-4.163835 0.13899,-6.233229 0.39617,-0.350308 0.65864,-0.510471 1.09961,-0.555979 0.33479,-0.03387 0.67839,-0.0028 1.04211,0.03069 0.0977,0.0088 0.19508,0.01765 0.29245,0.0254 0.95003,0.07479 1.70921,0.0095 2.38972,-0.204963 0.5909,-0.185914 1.11336,-0.483658 1.64112,-0.797983 0.72284,-0.431448 1.55152,-0.9479147 2.24014,-1.6270128 0.16122,-0.15875 0.18415,-0.4004019 0.0568,-0.587375 -0.12701,-0.1855605 -0.3676,-0.2536457 -0.57256,-0.1622772 -0.85408,0.3802936 -1.62207,0.4826 -2.28283,0.3051519 -0.36548,-0.098425 -0.70767,-0.2836333 -1.06962,-0.4797769 -0.27058,-0.1464019 -0.54998,-0.2980981 -0.84914,-0.4162769 -1.45238,-0.5757333 -2.91006,-0.3785314 -3.99979,0.5411603 -0.19262,0.1629833 -0.36019,0.3594814 -0.54963,0.7884583 l 0.0377,0.016589 c -0.19368,2.6468923 -0.29528,5.3438773 -0.31327,8.0369843 -0.10019,-0.0071 -0.20532,-0.0035 -0.31785,0.02151 -1.13312,0.253648 -2.15759,0.799042 -2.96263,1.576565 -0.19015,0.183444 -0.40181,0.412396 -0.52775,0.716492 -0.14535,0.350308 -0.14217,0.742243 0.009,1.074912 0.23318,0.513292 0.81915,0.872067 1.42557,0.872067 h 0.0159 c 0.5214,-0.0056 0.95532,-0.249061 1.31092,-0.486479 0.60148,-0.401463 1.01494,-0.796573 1.30104,-1.243542"
       inkscape:connector-curvature="0" />
    <path
       id="path262"
       style="fill:#614244;fill-opacity:1;fill-rule:nonzero;stroke:none;stroke-width:0.03527778"
       d="m -219.18431,23.876391 c 0.006,0.217311 0.0113,0.661104 0.0169,1.106311 0.006,0.455789 0.0116,0.913341 0.0177,1.135591 l 0.7052,-0.01834 c -0.006,-0.220488 -0.0116,-0.674159 -0.0173,-1.126067 -0.006,-0.449088 -0.0113,-0.896408 -0.0169,-1.115838 l -0.70555,0.01834"
       inkscape:connector-curvature="0" />
    <path
       id="path264"
       style="fill:#614244;fill-opacity:1;fill-rule:nonzero;stroke:none;stroke-width:0.03527778"
       d="m -218.44242,29.793179 c 0.0688,-0.730602 0.0501,-1.470025 -0.0564,-2.1971 l -0.6978,0.101954 c 0.0981,0.671335 0.11536,1.35396 0.0519,2.029177 l 0.70238,0.06597"
       inkscape:connector-curvature="0" />
    <path
       id="path266"
       style="fill:#614244;fill-opacity:1;fill-rule:nonzero;stroke:none;stroke-width:0.03527778"
       d="m -220.54885,26.656279 -1.62314,0.102658 0.0444,0.704146 1.62314,-0.102658 -0.0444,-0.704146"
       inkscape:connector-curvature="0" />
    <path
       id="path268"
       style="fill:#614244;fill-opacity:1;fill-rule:nonzero;stroke:none;stroke-width:0.03527778"
       d="m -217.20558,26.440027 -0.13899,0.691798 c 0.30056,0.06033 0.60889,0.09066 0.91722,0.09066 0.33337,0 0.66675,-0.03528 0.99025,-0.105833 l -0.15029,-0.689325 c -0.52775,0.115358 -1.08761,0.119591 -1.61819,0.0127"
       inkscape:connector-curvature="0" />
    <path
       id="path270"
       style="fill:#614244;fill-opacity:1;fill-rule:nonzero;stroke:none;stroke-width:0.03527778"
       d="m -196.27492,4.5279411 c -0.003,-0.1287647 -0.007,-0.3933481 -0.01,-0.6575795 -0.004,-0.2681103 -0.007,-0.5362205 -0.0102,-0.6671019 l -0.7052,0.018336 c 0.003,0.1287621 0.006,0.3929936 0.01,0.6575769 0.003,0.2681102 0.007,0.5362205 0.0102,0.6671019 l 0.7052,-0.018336"
       inkscape:connector-curvature="0" />
    <path
       id="path272"
       style="fill:#614244;fill-opacity:1;fill-rule:nonzero;stroke:none;stroke-width:0.03527778"
       d="m -196.9766,6.661893 0.70238,0.065969 c 0.042,-0.4441459 0.0303,-0.8925273 -0.0342,-1.332794 l -0.69779,0.1023065 c 0.0561,0.3845269 0.0663,0.7764621 0.0296,1.1645185"
       inkscape:connector-curvature="0" />
    <path
       id="path274"
       style="fill:#614244;fill-opacity:1;fill-rule:nonzero;stroke:none;stroke-width:0.03527778"
       d="m -198.58597,5.4814995 0.95885,-0.06068 -0.0445,-0.7041435 -0.9592,0.060677 0.0448,0.7041462"
       inkscape:connector-curvature="0" />
    <path
       id="path276"
       style="fill:#614244;fill-opacity:1;fill-rule:nonzero;stroke:none;stroke-width:0.03527778"
       d="m -194.7615,4.5840328 c -0.29246,0.064204 -0.60255,0.066675 -0.89677,0.00706 l -0.13934,0.6917981 c 0.18697,0.037748 0.37888,0.056443 0.57079,0.056443 0.20708,0 0.41452,-0.021881 0.61595,-0.065617 l -0.15063,-0.6896735"
       inkscape:connector-curvature="0" />
  </g>
</svg>
