<?xml version="1.0" encoding="UTF-8" standalone="no"?>
<!-- Created with Inkscape (http://www.inkscape.org/) -->

<svg
   xmlns:dc="http://purl.org/dc/elements/1.1/"
   xmlns:cc="http://creativecommons.org/ns#"
   xmlns:rdf="http://www.w3.org/1999/02/22-rdf-syntax-ns#"
   xmlns:svg="http://www.w3.org/2000/svg"
   xmlns="http://www.w3.org/2000/svg"
   xmlns:sodipodi="http://sodipodi.sourceforge.net/DTD/sodipodi-0.dtd"
   xmlns:inkscape="http://www.inkscape.org/namespaces/inkscape"
   width="34.559013mm"
   height="29.132071mm"
   viewBox="0 0 34.559013 29.132071"
   version="1.1"
   id="svg7791"
   inkscape:version="0.92.4 (5da689c313, 2019-01-14)"
   sodipodi:docname="rings.svg">
  <defs
     id="defs7785" />
  <sodipodi:namedview
     id="base"
     pagecolor="#ffffff"
     bordercolor="#666666"
     borderopacity="1.0"
     inkscape:pageopacity="0.0"
     inkscape:pageshadow="2"
     inkscape:zoom="0.35"
     inkscape:cx="15.308388"
     inkscape:cy="55.052737"
     inkscape:document-units="mm"
     inkscape:current-layer="layer1"
     showgrid="false"
     fit-margin-top="0"
     fit-margin-left="0"
     fit-margin-right="0"
     fit-margin-bottom="0"
     inkscape:window-width="1920"
     inkscape:window-height="1001"
     inkscape:window-x="-9"
     inkscape:window-y="-9"
     inkscape:window-maximized="1" />
  <metadata
     id="metadata7788">
    <rdf:RDF>
      <cc:Work
         rdf:about="">
        <dc:format>image/svg+xml</dc:format>
        <dc:type
           rdf:resource="http://purl.org/dc/dcmitype/StillImage" />
        <dc:title></dc:title>
      </cc:Work>
    </rdf:RDF>
  </metadata>
  <g
     inkscape:label="Layer 1"
     inkscape:groupmode="layer"
     id="layer1"
     transform="translate(-88.553822,-134.2673)">
    <path
       id="path144"
       style="fill:#614244;fill-opacity:1;fill-rule:nonzero;stroke:none;stroke-width:0.03527778"
       d="m 92.951894,144.61639 c 2.818765,-2.41935 6.894583,-2.90125 10.384896,-1.22626 1.81539,0.87066 3.33587,2.25496 4.28096,3.89784 1.23507,2.1463 1.43721,4.55225 1.38959,6.19302 -0.06,2.04611 -0.54222,3.76555 -1.38889,5.00626 -0.51399,-0.40323 -0.98107,-0.89252 -1.36877,-1.48836 -0.009,-0.0135 -0.0155,-0.0286 -0.0243,-0.0423 1.70109,-2.97922 1.2901,-7.22419 -1.00154,-9.98009 -2.61479,-3.1429 -7.27502,-3.94053 -10.389519,-1.77729 -1.981341,1.37618 -3.440253,3.93629 -3.806966,6.68161 -0.323426,2.42005 0.262784,4.66407 1.650612,6.31859 1.502622,1.79141 3.79155,2.58199 6.08651,2.58199 1.733443,0 3.466043,-0.45614 4.869393,-1.26788 0.34537,0.52916 0.73413,1.00435 1.16346,1.42274 -3.9243,2.27973 -8.524452,2.28177 -12.126101,-0.0392 -2.241374,-1.44425 -2.987851,-4.08128 -3.233314,-5.52484 -0.697971,-4.10245 0.68132,-8.3245 3.514019,-10.75584 z m 15.277216,2.31951 c -0.12241,-0.21272 -0.2547,-0.42086 -0.39476,-0.62512 0.7105,-0.54116 1.51236,-0.88689 2.38972,-1.02447 2.21297,-0.34643 4.74768,-0.59019 6.82801,0.92534 2.78519,2.02882 3.12809,5.90127 2.23238,8.83884 -0.83855,2.74955 -3.07163,4.64185 -5.82789,4.93853 -1.63301,0.1764 -3.62726,-0.0765 -5.26309,-1.0936 0.92745,-1.35432 1.45486,-3.2071 1.51906,-5.39397 0.0504,-1.73143 -0.1658,-4.27637 -1.48343,-6.56555 z m -3.01448,3.99133 c 0.012,-0.0695 0.0254,-0.13794 0.0388,-0.20567 0.11147,-0.55527 0.27693,-1.08726 0.48718,-1.59209 1.02976,2.23697 1.09256,4.98616 0.0811,7.08837 -0.71931,-1.51801 -0.94509,-3.39443 -0.60713,-5.29061 z m -2.43452,6.97018 c 0.14816,0.3542 0.31185,0.69038 0.48859,1.01105 -3.00619,1.73567 -7.645361,1.70429 -10.050035,-1.16239 -1.259099,-1.50072 -1.78883,-3.55071 -1.492003,-5.7718 0.336127,-2.51636 1.714006,-4.94806 3.510139,-6.19583 2.456356,-1.70604 5.984379,-1.36384 8.430899,0.64558 -1.13595,1.77412 -1.78294,3.86609 -1.8669,6.06178 -0.0695,1.8415 0.26881,3.71299 0.97931,5.41161 z m 7.33707,-15.37688 c 0.81844,-0.21201 1.6831,-0.3115 2.57528,-0.30938 0.12347,0.006 0.26317,0.0102 0.43532,0.0102 0.0409,0 0.0811,-2.7e-4 0.12101,-2.7e-4 3.55035,0.18415 6.63786,2.10573 8.06414,5.02462 2.43205,4.9784 0.6851,11.83677 -3.66536,14.38941 -2.24296,1.31591 -6.32142,1.27569 -9.19092,0.55605 -2.27753,-0.57118 -4.01531,-2.14984 -5.02567,-4.56568 -0.67098,-1.60514 -0.99095,-3.37291 -0.92498,-5.11281 0.0776,-2.02918 0.66569,-3.96099 1.6951,-5.60811 0.16686,0.16581 0.32737,0.34008 0.48013,0.52352 0.23777,0.28611 0.45014,0.59443 0.64382,0.91546 -0.34432,0.69603 -0.60396,1.44639 -0.76306,2.23908 -0.0148,0.073 -0.0289,0.14711 -0.042,0.22119 -0.42933,2.40983 -0.0145,4.80801 1.13841,6.58003 1.62102,2.49201 4.42736,3.36233 6.83225,3.36233 0.35736,0 0.70626,-0.0193 1.04105,-0.0554 3.04235,-0.32737 5.50509,-2.40983 6.42761,-5.43454 0.96837,-3.17642 0.57361,-7.38153 -2.49167,-9.61461 -2.29835,-1.67428 -5.00027,-1.42099 -7.35295,-1.05234 -0.99236,0.15593 -1.89865,0.5454 -2.70087,1.15535 -0.34713,-0.43674 -0.73201,-0.84914 -1.15217,-1.23049 1.12183,-0.94826 2.41547,-1.62031 3.85551,-1.99355 z m 1.40793,-2.24401 c -0.12911,-0.12454 -0.25858,-0.25189 -0.3884,-0.37889 0.46602,0.018 0.93204,0.0303 1.39911,0.037 -0.19685,0.254 -0.37959,0.51929 -0.5461,0.79446 -0.15487,-0.15205 -0.31009,-0.30445 -0.46461,-0.45261 z m -0.80292,-1.83198 0.12453,-2.6e-4 c 0.11677,0 0.24906,2.6e-4 0.37395,0.001 0.17498,0.25576 0.34748,0.51293 0.51929,0.77081 -0.44133,-0.0123 -0.88195,-0.0303 -1.32151,-0.0529 -0.009,-0.0102 -0.0198,-0.0201 -0.0289,-0.0303 0.0885,-0.21343 0.2286,-0.49036 0.33267,-0.68827 z m 5.12622,0.33302 c 0.0882,0.12982 0.18062,0.25824 0.29069,0.39335 -0.40499,0.0198 -0.81104,0.0356 -1.21815,0.0466 0.16475,-0.22719 0.31892,-0.46355 0.44768,-0.68616 l 0.31327,0.007 c 0.0617,0.0854 0.115,0.16405 0.16651,0.23954 z m -1.14371,1.96004 c -0.031,0.0257 -0.0649,0.0536 -0.0995,0.0815 -0.22966,-0.28046 -0.44274,-0.57432 -0.63535,-0.88124 0.55597,-0.006 1.11019,-0.0198 1.66334,-0.0413 -0.25964,0.26071 -0.53728,0.51647 -0.92851,0.84103 z m -2.17523,-1.61185 c -0.14675,-0.22295 -0.29845,-0.44308 -0.44767,-0.66463 l 2.46768,0.0526 c -0.1718,0.26 -0.3623,0.51612 -0.53622,0.71791 -0.47167,0.005 -0.94298,0.005 -1.41499,-0.001 z m 0.70732,2.38655 c -0.16651,-0.008 -0.33055,-0.005 -0.4953,-0.006 -0.0751,-0.084 -0.15804,-0.16475 -0.23601,-0.24801 0.22366,-0.39158 0.47449,-0.76729 0.76306,-1.11266 0.23284,0.38876 0.5013,0.7553 0.78775,1.10596 -0.1344,0.10407 -0.254,0.19544 -0.33055,0.25365 -0.10371,0.003 -0.27128,0.008 -0.45402,0.01 -0.0116,-8e-4 -0.0233,-0.002 -0.0349,-0.003 z m -20.94773,19.97807 c 1.928284,1.24217 4.123902,1.86172 6.359631,1.86135 2.272979,0 4.585089,-0.64702 6.701049,-1.92294 0.85125,0.68294 1.83515,1.17078 2.93546,1.44669 1.28235,0.32176 2.82999,0.5239 4.37515,0.5239 1.9685,0 3.93383,-0.32811 5.34423,-1.15578 4.64574,-2.72587 6.52463,-10.02202 3.9423,-15.30734 -1.34973,-2.7626 -4.06577,-4.69653 -7.28134,-5.26415 0.0219,-0.0169 0.0434,-0.0342 0.0653,-0.0512 l 0.0173,0.009 0.0204,-0.0388 c 0.13723,-0.1083 0.27375,-0.21695 0.38664,-0.31079 0.76624,-0.63536 1.13454,-1.03576 1.69263,-1.64218 l 0.35701,-0.38735 -0.25435,-0.23919 c -0.25012,-0.23565 -0.36865,-0.40992 -0.51823,-0.63041 -0.0847,-0.12488 -0.17498,-0.25718 -0.29351,-0.40958 l -0.10337,-0.13193 -4.51979,-0.0967 c -0.17638,-0.004 -0.45049,-0.005 -0.66886,-0.005 l -0.54434,0.002 -0.10019,0.18133 c -0.0444,0.0804 -0.43744,0.79728 -0.55421,1.18605 l -0.0561,0.18626 0.12735,0.14676 c 0.40499,0.46602 0.86854,0.91228 1.31657,1.34373 0.25611,0.24659 0.51611,0.49883 0.76588,0.75353 -0.63782,0.0483 -1.26154,0.14393 -1.86126,0.29951 -1.58221,0.40957 -3.00002,1.15711 -4.22381,2.21509 -0.635,-0.50341 -1.33103,-0.94227 -2.07468,-1.29857 -3.741847,-1.79564 -8.118372,-1.27459 -11.149509,1.32679 -3.016921,2.58974 -4.488815,7.06791 -3.75031,11.40954 0.265112,1.55822 1.078159,4.40937 3.546933,5.99997"
       inkscape:connector-curvature="0" />
    <path
       id="path146"
       style="fill:#614244;fill-opacity:1;fill-rule:nonzero;stroke:none;stroke-width:0.03527778"
       d="m 113.62344,136.48592 c 0.10971,-0.64135 0.14675,-1.29575 0.11112,-1.94557 l -0.70449,0.0392 c 0.0328,0.5969 -10e-4,1.19838 -0.10231,1.78752 l 0.69568,0.11889"
       inkscape:connector-curvature="0" />
    <path
       id="path148"
       style="fill:#614244;fill-opacity:1;fill-rule:nonzero;stroke:none;stroke-width:0.03527778"
       d="m 116.99035,134.2673 -1.26506,2.30117 0.60219,0.36653 0.17357,-0.25788 -0.0219,-0.0148 1.12995,-2.05493 -0.61877,-0.34008"
       inkscape:connector-curvature="0" />
    <path
       id="path150"
       style="fill:#614244;fill-opacity:1;fill-rule:nonzero;stroke:none;stroke-width:0.03527778"
       d="m 110.75006,136.58963 -1.18004,-2.26412 -0.62583,0.32632 1.18004,2.26377 0.62583,-0.32597"
       inkscape:connector-curvature="0" />
  </g>
</svg>
