<?xml version="1.0" standalone="no"?>
<!DOCTYPE svg PUBLIC "-//W3C//DTD SVG 20010904//EN"
 "http://www.w3.org/TR/2001/REC-SVG-20010904/DTD/svg10.dtd">
<svg version="1.0" xmlns="http://www.w3.org/2000/svg"
 width="658.000000pt" height="658.000000pt" viewBox="0 0 658.000000 658.000000"
 preserveAspectRatio="xMidYMid meet">
<metadata>
Created by potrace 1.11, written by Peter Selinger 2001-2013
</metadata>
<g transform="translate(0.000000,658.000000) scale(0.100000,-0.100000)"
fill="#000000" stroke="none">
<path d="M2440 5821 c0 -3 -19 -6 -43 -7 -66 -1 -144 -13 -232 -35 -44 -12
-84 -22 -90 -23 -5 -1 -26 -9 -46 -18 -20 -9 -47 -19 -60 -23 -36 -11 -158
-75 -212 -112 -106 -71 -211 -168 -297 -273 -44 -54 -54 -66 -76 -93 -7 -8
-60 -85 -119 -173 -135 -199 -137 -202 -211 -277 -78 -79 -77 -78 -165 -120
-152 -72 -190 -79 -419 -77 -268 3 -277 3 -304 -4 -44 -11 -56 -107 -26 -216
12 -47 50 -141 59 -150 4 -3 16 -24 29 -48 41 -75 111 -152 184 -199 23 -15
45 -30 48 -33 20 -20 182 -94 245 -111 17 -4 55 -15 85 -24 30 -8 109 -25 175
-36 136 -22 172 -32 232 -61 48 -24 94 -83 100 -130 21 -168 -28 -250 -288
-478 -94 -82 -255 -243 -294 -294 -16 -21 -36 -45 -43 -53 -26 -26 -162 -235
-162 -248 0 -7 -4 -15 -9 -17 -14 -5 -98 -200 -121 -282 -12 -39 -24 -78 -27
-86 -3 -8 -7 -22 -8 -30 -1 -8 -6 -31 -10 -50 -4 -19 -9 -50 -11 -67 -2 -18
-6 -50 -9 -70 -5 -41 -6 -237 0 -293 3 -32 8 -70 20 -155 14 -99 77 -290 133
-405 35 -73 117 -210 132 -220 4 -3 9 -10 11 -16 16 -45 236 -268 344 -350 99
-75 219 -154 233 -154 6 0 12 -4 14 -8 3 -9 290 -152 305 -152 5 0 29 -10 53
-21 24 -12 49 -22 54 -23 6 -1 20 -7 31 -13 11 -6 23 -11 28 -12 20 -2 63 -15
72 -21 6 -4 46 -17 90 -29 l80 -22 1270 3 1270 3 155 48 c85 26 164 51 175 56
16 8 49 19 75 26 3 1 14 5 25 10 11 4 40 16 65 26 25 9 77 32 115 50 39 18 72
33 75 34 19 6 46 19 50 24 3 3 25 16 50 29 105 53 264 158 359 237 123 103
276 253 328 323 16 20 30 39 34 42 39 34 235 354 244 400 1 3 13 30 27 60 14
30 30 69 36 85 6 17 17 44 23 60 7 17 13 32 14 35 0 3 11 37 23 75 12 39 24
79 27 90 3 11 14 56 25 99 19 79 29 128 35 176 1 14 6 44 9 66 6 39 10 75 21
184 6 56 6 411 0 465 -2 22 -7 74 -10 115 -3 41 -8 82 -11 90 -3 8 -8 35 -10
60 -3 25 -7 56 -9 70 -12 62 -17 89 -31 155 -9 38 -17 77 -19 85 -1 8 -8 35
-15 60 -7 25 -13 50 -14 55 -22 111 -144 425 -218 558 -21 38 -38 74 -38 78 0
5 -3 9 -8 9 -4 0 -13 13 -19 28 -20 44 -93 111 -134 124 -77 23 -130 -19 -281
-222 -286 -383 -505 -562 -864 -703 -78 -31 -264 -91 -315 -102 -8 -2 -44 -10
-80 -19 -35 -9 -79 -17 -96 -19 -18 -1 -33 -5 -33 -8 0 -3 -6 -6 -12 -6 -19
-1 -98 -12 -133 -19 -136 -26 -481 -37 -627 -20 -81 9 -196 39 -247 66 -45 23
-110 85 -122 118 -19 50 2 141 43 187 7 8 18 20 23 27 34 45 93 109 204 223
150 154 223 243 283 345 46 78 93 185 102 232 2 15 7 31 10 36 5 9 7 20 31
151 20 117 12 385 -15 476 -5 17 -11 41 -14 55 -6 35 -49 146 -81 210 -39 79
-111 177 -169 234 -51 49 -189 156 -202 156 -4 0 -29 13 -55 30 -102 62 -339
145 -474 164 -23 4 -52 9 -65 11 -14 3 -61 8 -105 11 -43 3 -82 7 -86 10 -4 2
-10 0 -13 -5 -3 -5 -21 -5 -41 -1 -19 4 -35 5 -35 1z"/>
</g>
</svg>
